<?xml version="1.0" standalone="no"?>
<!DOCTYPE svg PUBLIC "-//W3C//DTD SVG 1.1//EN" "http://www.w3.org/Graphics/SVG/1.1/DTD/svg11.dtd" >
<svg xmlns="http://www.w3.org/2000/svg">
<metadata></metadata>
<defs>
<font id="omnesregular" horiz-adv-x="1501" >
<font-face units-per-em="2048" ascent="1638" descent="-410" />
<missing-glyph horiz-adv-x="348" />
<glyph unicode="&#xfb01;" horiz-adv-x="1437" d="M6 860v21q0 135 160 135h41v26q0 119 28.5 198t81 126t123 66.5t154.5 19.5q154 0 222.5 -56.5t68.5 -129.5q0 -33 -11.5 -61.5t-24.5 -49t-25.5 -33t-14.5 -10.5q-23 23 -53.5 36t-71.5 13q-49 0 -74.5 -25.5t-25.5 -86.5v-33h86q160 0 159 -142v-22q0 -133 -159 -133 h-70v-539q0 -109 -48 -149.5t-128 -40.5h-41q-76 0 -126 42t-50 148v539h-41q-160 0 -160 141zM936 1317q0 86 55.5 135t151.5 49q98 0 154.5 -49t56.5 -135t-55.5 -136.5t-151.5 -50.5q-98 0 -154.5 50.5t-56.5 136.5zM948 180v656q0 109 50.5 149.5t125.5 40.5h41 q78 0 127 -40t49 -150v-656q0 -106 -49 -148t-125 -42h-41q-78 0 -128 41t-50 149z" />
<glyph unicode="&#xfb02;" horiz-adv-x="1437" d="M6 860v21q0 135 160 135h41v26q0 119 28.5 198t81 126t123 66.5t154.5 19.5q154 0 222.5 -56.5t68.5 -129.5q0 -33 -11.5 -61.5t-24.5 -49t-25.5 -33t-14.5 -10.5q-23 23 -53.5 36t-71.5 13q-49 0 -74.5 -25.5t-25.5 -86.5v-33h86q160 0 159 -142v-22q0 -133 -159 -133 h-70v-539q0 -109 -48 -149.5t-128 -40.5h-41q-76 0 -126 42t-50 148v539h-41q-160 0 -160 141zM948 180v1217q0 10 46 27.5t106 17.5q43 0 86 -13.5t77.5 -47t56 -91t21.5 -147.5v-963q0 -106 -49 -148t-125 -42h-41q-78 0 -128 41t-50 149z" />
<glyph horiz-adv-x="0" />
<glyph unicode="&#xd;" horiz-adv-x="348" />
<glyph unicode=" "  horiz-adv-x="348" />
<glyph unicode="&#x09;" horiz-adv-x="348" />
<glyph unicode="&#xa0;" horiz-adv-x="348" />
<glyph unicode="!" horiz-adv-x="608" d="M78 1100q-29 113 27.5 181.5t168.5 68.5h52q119 0 176 -69t28 -181l-104 -535q-16 -63 -40 -93t-64 -30h-39q-39 0 -60.5 30t-38.5 93zM111 150v32q0 166 168 166h47q170 0 170 -166v-32q0 -166 -170 -166h-47q-168 0 -168 166z" />
<glyph unicode="&#x22;" horiz-adv-x="980" d="M76 1159q-16 86 26.5 135t159.5 49q119 0 162 -49t27 -135l-74 -393q-10 -47 -30.5 -68.5t-61.5 -21.5h-43q-41 0 -61.5 21.5t-30.5 68.5zM528 1159q-16 86 27 135t160 49t161 -49t27 -135l-74 -393q-10 -47 -30.5 -68.5t-61.5 -21.5h-43q-41 0 -61.5 21.5t-30.5 68.5z " />
<glyph unicode="#" horiz-adv-x="1429" d="M12 383v47q0 117 156 117h145l72 231h-55q-156 0 -156 119v49q0 115 156 115h143l88 280q6 14 39 15q23 0 50.5 -10.5t53 -31t43 -51t17.5 -71.5q0 -29 -12 -72l-19 -59h211l88 280q2 14 37 15q23 0 51.5 -10.5t54 -31t43 -51t17.5 -71.5q0 -31 -14 -72l-19 -59h58 q156 0 155 -115v-47q0 -121 -155 -121h-146l-72 -231h58q156 0 155 -117v-47q0 -119 -155 -119h-148q2 0 -12 -43t-31 -96q-20 -61 -43 -139q-4 -16 -37 -17q-20 0 -48.5 10.5t-55.5 31t-44 51t-17 71.5q0 33 14 74l8 29q4 10 7 19t1 9h-209l-88 -278q-6 -16 -37 -17 q-23 0 -51 10.5t-54 31t-43 51t-17 71.5q0 31 12 74l18 57h-57q-156 0 -156 119zM569 545h215l72 235h-213z" />
<glyph unicode="$" horiz-adv-x="1175" d="M57 270q0 41 18.5 76t40 59.5t42 38t22.5 9.5q31 -27 75 -52.5t94 -46t103.5 -32t104.5 -11.5q170 0 170 97q0 27 -17.5 45t-46 30.5t-68.5 21.5t-85 19q-63 12 -137 35t-137.5 66t-106.5 111.5t-43 174.5q0 154 91 255.5t257 136.5v45q0 94 37 142t123 48h10 q88 0 124 -46t36 -144v-35q166 -20 249 -83t83 -157q0 -43 -19.5 -79t-43 -62.5t-44 -39.5t-24.5 -11q-68 61 -159 99t-179 38q-164 0 -164 -96q0 -27 17.5 -43.5t47 -28.5t70.5 -22.5t90 -20.5q66 -12 141.5 -35.5t141 -66.5t109.5 -110t44 -169q0 -162 -92 -263.5 t-270 -135.5v-52q0 -94 -37 -142t-123 -48h-10q-88 0 -124 46t-36 144v41q-184 20 -279.5 88t-95.5 166z" />
<glyph unicode="%" horiz-adv-x="1521" d="M10 1008v14q0 150 98.5 237t260.5 87t258 -86t96 -236v-14q0 -150 -96 -237t-258 -87q-164 0 -261.5 86t-97.5 236zM131 102q0 43 49 101l1034 1145q6 6 34 -1.5t58.5 -23.5t55 -43t24.5 -61q0 -45 -49 -101l-1034 -1145q-4 -6 -31.5 1.5t-58.5 24.5t-56.5 44t-25.5 59z M266 999q0 -59 29 -88.5t74 -29.5q43 0 72.5 28.5t29.5 89.5v33q0 61 -29.5 91t-72.5 30q-47 0 -75 -28.5t-28 -92.5v-33zM797 297v14q0 150 97 237t261 87q162 0 258 -86t96 -238v-14q0 -150 -96 -236t-258 -86q-164 0 -261 86t-97 236zM1053 289q0 -61 28.5 -90t73.5 -29 q43 0 71.5 28.5t28.5 90.5v30q0 61 -28.5 92t-71.5 31q-47 0 -74.5 -29.5t-27.5 -93.5v-30z" />
<glyph unicode="&#x26;" horiz-adv-x="1456" d="M31 371q0 129 73.5 221t208.5 143q-55 53 -87.5 119t-32.5 137q0 82 32.5 148.5t92 115t145.5 74t190 25.5q92 0 169 -23.5t130.5 -67.5t83 -105.5t29.5 -137.5q0 -109 -71.5 -187.5t-196.5 -121.5l180 -154q16 35 31.5 71t35.5 89q41 90 82 126t107 36q43 0 75.5 -14.5 t55 -33t33 -35t10.5 -20.5q-29 -115 -82 -218t-121 -196l252 -210q2 -2 -10 -29t-38 -58.5t-68 -57t-97 -25.5q-47 0 -104.5 23.5t-112.5 88.5l-35 35q-82 -76 -189.5 -117t-248.5 -41q-248 0 -385 102.5t-137 297.5zM373 416q0 -82 57 -129t154 -47q53 0 104 22.5t94 59.5 l-299 260q-51 -29 -80.5 -69t-29.5 -97zM537 981q0 -45 20 -78.5t59 -68.5q80 27 113 64.5t33 88.5t-32 83t-79 32q-53 0 -83.5 -34t-30.5 -87z" />
<glyph unicode="'" horiz-adv-x="528" d="M76 1159q-16 86 26.5 135t159.5 49q119 0 162 -49t27 -135l-74 -393q-10 -47 -30.5 -68.5t-61.5 -21.5h-43q-41 0 -61.5 21.5t-30.5 68.5z" />
<glyph unicode="(" horiz-adv-x="903" d="M63 473q0 180 54.5 340t143.5 278.5t204 188.5t235 70q92 0 140.5 -46.5t48.5 -125.5q0 -27 -9.5 -48.5t-21.5 -38t-23.5 -25.5t-15.5 -11q-92 -25 -159.5 -77t-113.5 -128t-68.5 -171t-22.5 -206t22.5 -207t68.5 -172t113.5 -128t159.5 -77q4 -2 15.5 -11t23.5 -25.5 t21.5 -39t9.5 -49.5q0 -78 -48.5 -124t-140.5 -46q-121 0 -235.5 69t-203.5 187.5t-143.5 278.5t-54.5 344z" />
<glyph unicode=")" horiz-adv-x="903" d="M14 -236q0 27 9.5 49.5t21.5 39t23.5 25.5t15.5 11q92 25 159.5 77t113.5 128t69 172t23 207t-23 206t-69 171t-113.5 128t-159.5 77q-4 2 -15.5 11t-23.5 25.5t-21.5 38t-9.5 48.5q0 80 49.5 126t139.5 46q121 0 235.5 -70t203.5 -188.5t143.5 -278.5t54.5 -340 q0 -184 -54.5 -344t-143.5 -278.5t-203.5 -187.5t-235.5 -69q-90 0 -139.5 46.5t-49.5 123.5z" />
<glyph unicode="*" horiz-adv-x="886" d="M35 986.5q-8 25.5 4 70.5l2 8q10 47 36.5 63.5t86.5 6.5l155 -27l23 147q10 59 35.5 78t66.5 19h9q41 0 67.5 -18.5t36.5 -78.5l21 -147l151 27q61 10 88 -8.5t37 -61.5l2 -8q12 -45 4 -70.5t-63 -54.5l-133 -70l75 -141q29 -55 15.5 -87t-43.5 -54l-6 -5 q-31 -20 -63 -22t-77 39l-119 119q0 2 -17 -17.5t-40 -42.5q-25 -27 -59 -59q-45 -41 -75 -38t-65 21l-8 5q-35 20 -46 53t18 88l75 143l-131 68q-55 29 -63 54.5z" />
<glyph unicode="+" horiz-adv-x="1093" d="M31 510v16q0 57 39 95t118 38h209v218q0 78 37 117.5t96 39.5h33q57 0 95 -40t38 -117v-218h211q80 0 118 -37.5t38 -95.5v-16q0 -59 -38 -96t-118 -37h-211v-225q0 -80 -37.5 -118t-95.5 -38h-33q-59 0 -96 38t-37 118v225h-209q-80 0 -118.5 37t-38.5 96z" />
<glyph unicode="," horiz-adv-x="530" d="M18 -109l70 299q10 41 21.5 72t31 50.5t49 29.5t76.5 10h43q72 0 112 -38t40 -124v-16q0 -49 -20.5 -95t-67.5 -93l-156 -183q-27 -29 -64.5 -32.5t-70.5 9.5t-52.5 41.5t-11.5 69.5z" />
<glyph unicode="-" horiz-adv-x="960" d="M61 473v64q0 57 39 102t117 45h526q78 0 117 -45t39 -102v-64q0 -59 -39 -103t-117 -44h-526q-78 0 -117 44t-39 103z" />
<glyph unicode="." horiz-adv-x="530" d="M72 150v32q0 166 166 166h47q90 0 130 -40t40 -126v-32q0 -166 -170 -166h-47q-166 0 -166 166z" />
<glyph unicode="/" horiz-adv-x="782" d="M-23 -303q0 16 3.5 38.5t13.5 51.5l500 1554q2 4 26.5 9.5t59.5 5.5q31 0 63.5 -6.5t60 -21.5t46 -43t18.5 -71q0 -16 -3 -38.5t-13 -51.5l-500 -1556q0 -4 -25.5 -8t-60.5 -4q-31 0 -63.5 5t-60.5 20.5t-46.5 43t-18.5 72.5z" />
<glyph unicode="0" horiz-adv-x="1337" d="M55 600v125q0 143 42 260t121 199t193.5 126t258.5 44q145 0 258.5 -44t191.5 -126t120 -198t42 -259v-127q0 -143 -42 -260t-121 -199t-192.5 -126t-256.5 -44q-145 0 -259 44t-193 125t-121 198t-42 262zM467 565q0 -264 203 -264q201 0 200 262v201q0 266 -200 266 q-203 0 -203 -266v-199z" />
<glyph unicode="1" horiz-adv-x="860" d="M33 1047q0 51 14 87.5t32.5 60.5t36 33t23.5 7q31 -20 61.5 -30.5t67.5 -10.5q66 0 117 39t68 110h106q180 0 180 -190v-981q0 -190 -180 -190h-51q-174 0 -174 190v692q-45 -23 -94 -22q-90 0 -148.5 57t-58.5 148z" />
<glyph unicode="2" horiz-adv-x="1181" d="M57 199v77q0 86 39 156t98.5 123t131 93t139.5 71q57 27 107.5 48t87 41.5t57 44.5t20.5 54q0 127 -170 127q-51 0 -92 -17.5t-71.5 -47t-49 -66.5t-26.5 -76q0 -2 -41 -1t-91.5 16.5t-91.5 54.5t-41 113t35 137t102.5 109.5t167 73t226.5 26.5q264 0 402.5 -114 t138.5 -316q0 -94 -30 -160t-81 -111t-115.5 -76.5t-136.5 -58.5q-121 -45 -205 -86t-123 -106h508q106 0 149.5 -39t43.5 -111v-16q0 -78 -42 -119t-151 -41h-647q-72 0 -119 7t-75.5 27.5t-41 59.5t-12.5 103z" />
<glyph unicode="3" horiz-adv-x="1198" d="M25 281q0 78 37.5 117.5t82.5 57t83 17.5t40 -6q27 -94 101.5 -141t185.5 -47q96 0 151.5 36.5t55.5 100.5q0 121 -156 121h-41q-100 0 -144 32.5t-44 98.5v22q0 135 184 135h72q53 0 84 27t31 72q0 57 -52.5 90t-146.5 33q-66 0 -112 -16.5t-76.5 -42t-48 -56.5 t-25.5 -62q0 -6 -37 -7t-81 15.5t-81 57.5t-37 119q0 63 35 118.5t100.5 95.5t159.5 62.5t211 22.5q281 0 426 -94.5t145 -278.5q0 -98 -60 -164.5t-177 -101.5q127 -41 192.5 -125t65.5 -207q0 -199 -152.5 -305.5t-437.5 -106.5q-123 0 -222 24.5t-169 66.5t-106.5 98.5 t-36.5 120.5z" />
<glyph unicode="4" horiz-adv-x="1290" d="M29 455v57q0 47 15 88t50 100l328 506q25 43 50.5 71t62 42t89 19t128.5 5q78 0 133 -13t91 -44t52 -82t16 -127v-491h50q96 0 135 -32t39 -108v-10q0 -82 -39 -114.5t-135 -32.5h-50v-117q0 -190 -172 -190h-34q-86 0 -126 49t-40 141v117h-426q-104 0 -160.5 47 t-56.5 119zM379 578h309v491z" />
<glyph unicode="5" horiz-adv-x="1159" d="M29 227q0 41 21.5 77t49 62.5t52 40t28.5 9.5q72 -76 164 -115t195 -39q106 0 164.5 42t58.5 118q0 156 -223 156q-86 0 -141.5 -21.5t-90.5 -46.5q-115 2 -176 52t-61 177v357q0 113 44 171t148 58h612q197 0 197 -158v-10q0 -82 -47 -119t-150 -37h-471v-196 q47 16 98.5 24.5t106.5 8.5q117 0 210 -29t159.5 -83t102.5 -132t36 -178t-39 -183t-112.5 -140.5t-178 -89.5t-237.5 -32q-127 0 -224.5 21.5t-163 57.5t-99 82t-33.5 95z" />
<glyph unicode="6" horiz-adv-x="1273" d="M55 608v99q0 150 44 269.5t127 203.5t202 129t268 45q236 0 361 -78t125 -207q0 -59 -30 -94t-65.5 -52.5t-66.5 -21.5t-33 -2q-29 49 -90 92t-166 43q-139 0 -202.5 -71.5t-69.5 -221.5q53 47 138 79t198 32q197 0 317.5 -99.5t120.5 -293.5v-10q0 -106 -41 -194.5 t-116 -151t-178 -97.5t-230 -35q-143 0 -257 45t-193 128t-121 201t-42 263zM467 506q6 -113 57 -173.5t140 -60.5q76 0 127 40t51 112v6q0 72 -47 111t-133 39q-55 0 -104.5 -19.5t-90.5 -54.5z" />
<glyph unicode="7" horiz-adv-x="1150" d="M23 1151v23q0 86 46 118.5t134 32.5h635q92 0 146 -18.5t83 -47t38 -66.5t9 -79v-22q0 -41 -14.5 -84t-33.5 -84t-42 -78t-41 -68l-369 -653q-47 -80 -101 -111.5t-107 -31.5q-49 0 -94.5 18t-77 43t-49 48.5t-11.5 31.5l502 870h-473q-88 0 -134 35t-46 123z" />
<glyph unicode="8" horiz-adv-x="1271" d="M45 367q0 231 256 313q-217 78 -217 293q0 86 40 157.5t113.5 123t176 79t225.5 27.5q125 0 224.5 -26.5t169 -78t107.5 -122t38 -160.5q0 -211 -211 -289q133 -41 195.5 -121t62.5 -196q0 -90 -41 -163t-117 -123t-185.5 -78t-248.5 -28q-281 0 -434.5 102.5 t-153.5 289.5zM444 408q0 -66 51.5 -108t141.5 -42q88 0 139 42t51 108q0 68 -51 110.5t-141 42.5q-88 0 -139.5 -42t-51.5 -111zM461 932q0 -61 49 -100t127 -39q76 0 124 38.5t48 100.5q0 61 -48 101t-126 40t-126 -39t-48 -102z" />
<glyph unicode="9" horiz-adv-x="1273" d="M41 866v4q0 109 41 197t114.5 152.5t178 99.5t231.5 35q139 0 253 -44t194 -126t123 -200t43 -265v-113q0 -311 -169 -474t-483 -163q-240 0 -358.5 66.5t-118.5 177.5q0 59 17.5 98t40 60.5t42 29t23.5 5.5q57 -49 136 -83t183 -34q145 0 213 70.5t70 226.5 q-53 -47 -138 -81t-198 -34q-197 0 -317.5 99.5t-120.5 295.5zM430 895q0 -72 48 -111t134 -39q53 0 102.5 19.5t90.5 52.5q-6 115 -57.5 175.5t-139.5 60.5q-76 0 -127 -43t-51 -115z" />
<glyph unicode=":" horiz-adv-x="544" d="M78 150v32q0 166 168 166h47q170 0 170 -166v-32q0 -166 -170 -166h-47q-168 0 -168 166zM78 727v33q0 168 168 168h47q170 0 170 -168v-33q0 -166 -170 -166h-47q-168 0 -168 166z" />
<glyph unicode=";" horiz-adv-x="544" d="M27 -109l69 299q16 82 50 122t128 40h41q74 0 114 -38t40 -124v-16q0 -49 -20.5 -95t-67.5 -93l-156 -183q-27 -29 -64.5 -32.5t-70.5 9.5t-52.5 41.5t-10.5 69.5zM78 727v33q0 168 168 168h47q170 0 170 -168v-33q0 -166 -170 -166h-47q-168 0 -168 166z" />
<glyph unicode="&#x3c;" horiz-adv-x="927" d="M63 518q0 66 35 112t80 70l592 324q6 2 21.5 -12.5t31 -39t27.5 -58t12 -70.5q2 -53 -28.5 -104.5t-116.5 -92.5l-256 -125l256 -127q86 -41 116.5 -93t30.5 -101q0 -37 -13 -72t-28.5 -59.5t-31 -38t-21.5 -11.5l-592 320q-45 25 -80 69t-35 109z" />
<glyph unicode="=" horiz-adv-x="1093" d="M68 246v33q0 57 38.5 103t116.5 46h647q80 0 119 -46t39 -103v-33q0 -59 -39 -103.5t-119 -44.5h-647q-78 0 -116.5 44t-38.5 104zM68 762v33q0 57 38.5 102t116.5 45h647q80 0 119 -45t39 -102v-33q0 -59 -39 -104.5t-119 -45.5h-647q-78 0 -116.5 45t-38.5 105z" />
<glyph unicode="&#x3e;" horiz-adv-x="927" d="M63 201q0 49 31 101t117 93l256 127l-256 125q-86 41 -117 92.5t-28 104.5q0 37 12 70.5t27.5 58t31 39t21.5 12.5l592 -324q45 -25 79.5 -70.5t34.5 -111.5t-34.5 -109.5t-79.5 -68.5l-592 -320q-6 -2 -21.5 11.5t-32 38t-29 59.5t-12.5 72z" />
<glyph unicode="?" horiz-adv-x="1069" d="M29 1016q0 66 32.5 127t97 108t158 75t213.5 28q242 0 375 -104.5t133 -284.5q0 -84 -26.5 -140.5t-66.5 -94.5t-88 -63.5t-90 -50t-73.5 -52t-40.5 -70.5q-20 -68 -155 -68q-74 0 -120 34t-46 103q0 74 25.5 121t62.5 79t80 51.5t79.5 35.5t61.5 36.5t25 51.5 q0 47 -37 73.5t-103 26.5q-55 0 -97 -17t-70.5 -46t-46 -66t-23.5 -75q0 -2 -19.5 -3.5t-48 2t-62.5 13.5t-62.5 30.5t-48 54.5t-19.5 85zM303 150v32q0 166 168 166h47q170 0 170 -166v-32q0 -166 -170 -166h-47q-168 0 -168 166z" />
<glyph unicode="@" horiz-adv-x="1507" d="M66 664q0 152 51 277.5t144 217.5t221 143.5t282 51.5q168 0 295 -48.5t213 -130t129 -191.5t43 -232q0 -199 -94.5 -303.5t-272.5 -104.5q-84 0 -142 34t-85 89q-20 -57 -72.5 -92t-118.5 -35q-63 0 -113 24.5t-84 65.5t-51.5 96.5t-17.5 118.5q0 141 75 226t191 85 q57 0 103.5 -26.5t77.5 -71.5q18 55 57 73.5t80 18.5q35 0 60.5 -11t25.5 -17v-299q0 -76 25.5 -99.5t68.5 -23.5q25 0 50.5 12t46 41t33.5 77t13 118q0 92 -30.5 177t-95 151.5t-167 105.5t-243.5 39q-123 0 -225.5 -42t-175 -116t-113.5 -176.5t-41 -222.5 q0 -121 40 -223.5t112.5 -177.5t175 -117t225.5 -42q119 0 212 38t156 98q35 31 68 30q23 0 39 -13t26.5 -28.5t15.5 -29t3 -15.5q-90 -98 -222 -155.5t-298 -57.5q-156 0 -284 51.5t-220 142.5t-142 218t-50 281zM621 645q0 -53 29.5 -86t76.5 -33q45 0 72.5 24.5 t27.5 67.5v95q-33 57 -98 57q-49 0 -78.5 -35t-29.5 -90z" />
<glyph unicode="A" horiz-adv-x="1409" d="M10 109l430 1112q8 25 23.5 46t45.5 36.5t77 23.5t116 8q70 0 116 -8t74 -23.5t42 -37t22 -45.5l447 -1108q2 -4 2 -8q-1 -12 -13 -28q-16 -22 -46.5 -43.5t-72.5 -36.5t-89 -15q-66 0 -129.5 42t-106.5 152l-37 98h-426l-39 -102q-37 -106 -97 -148t-126 -42 q-43 0 -83 14t-70 34q-32 20 -48 42q-13 17 -13 31q0 3 1 6zM553 569h285l-142 385z" />
<glyph unicode="B" horiz-adv-x="1351" d="M92 229v867q0 113 54.5 171t156.5 58h475q236 0 357.5 -86t121.5 -246q0 -117 -62 -182.5t-179 -93.5q150 -35 219.5 -123t69.5 -211q0 -100 -33 -172t-102.5 -119t-179 -69.5t-261.5 -22.5h-426q-102 0 -156.5 58.5t-54.5 170.5zM498 293h194q109 0 150 31.5t41 103.5 q0 66 -42 95.5t-153 29.5h-190v-260zM498 791h170q92 0 130 32.5t38 94.5q0 59 -38 87.5t-124 28.5h-176v-243z" />
<glyph unicode="C" horiz-adv-x="1329" d="M59 664q0 152 50.5 277.5t142.5 217.5t220 143.5t284 51.5q141 0 239.5 -33t161 -82t91 -106.5t28.5 -104.5q0 -63 -36 -104t-80 -64.5t-81 -30t-41 -2.5q-37 72 -104.5 112t-155.5 40q-63 0 -117.5 -22.5t-94.5 -63.5t-62.5 -99.5t-22.5 -129.5q0 -72 22.5 -130.5 t62.5 -100.5t94.5 -64.5t117.5 -22.5q96 0 164 42t100 118q4 4 41 -2t82 -28.5t81 -63.5t36 -107q0 -49 -28.5 -106.5t-92 -108.5t-164 -85t-243.5 -34q-156 0 -284 51.5t-219 143.5t-141.5 219t-50.5 279z" />
<glyph unicode="D" horiz-adv-x="1413" d="M92 225v871q0 113 60.5 171t154.5 58h350q164 0 294 -46t221.5 -131t140.5 -206t49 -272q0 -154 -50 -278t-142.5 -211t-224.5 -134t-296 -47h-327q-47 0 -89.5 17.5t-73 48t-49 71.5t-18.5 88zM500 348h139q143 0 230 83t87 237q0 150 -84 229.5t-227 79.5h-145v-629z " />
<glyph unicode="E" horiz-adv-x="1261" d="M92 225v871q0 113 54.5 171t156.5 58h705q98 0 144 -46t46 -126v-12q0 -86 -46 -128t-144 -42h-504v-133h336q102 0 146 -41t44 -117v-8q0 -80 -45 -123t-145 -43h-336v-154h514q188 0 188 -162v-10q0 -86 -45 -133t-143 -47h-715q-102 0 -156.5 56.5t-54.5 168.5z" />
<glyph unicode="F" horiz-adv-x="1169" d="M92 229v867q0 113 54.5 171t156.5 58h645q98 0 144.5 -42t46.5 -124v-10q0 -86 -46 -128t-145 -42h-450v-215h309q102 0 145 -41t43 -117v-6q0 -80 -44 -123t-144 -43h-295v-252q0 -190 -180 -190h-66q-86 0 -130 62.5t-44 174.5z" />
<glyph unicode="G" horiz-adv-x="1490" d="M59 664q0 152 52.5 277.5t147.5 217.5t228.5 143.5t296.5 51.5q125 0 222.5 -23.5t165 -64.5t102.5 -97.5t35 -121.5q0 -55 -31 -93.5t-67.5 -60t-69.5 -29.5t-37 -2q-53 68 -130 105t-165 37q-70 0 -131.5 -26t-107.5 -74t-71.5 -114.5t-25.5 -146.5q0 -82 23.5 -147.5 t65.5 -112.5t100.5 -72.5t128.5 -25.5q111 0 177 47t83 127h-138q-96 0 -144 28.5t-48 112.5v18q0 88 47 115t145 27h361q45 0 72.5 -10.5t43 -32t20.5 -54t5 -77.5v-555q0 -10 -41 -25.5t-96 -15.5q-31 0 -61.5 7t-58.5 24.5t-49.5 48t-33.5 77.5q-53 -78 -149.5 -122.5 t-235.5 -44.5q-143 0 -260 51t-198.5 142t-127 216t-45.5 275z" />
<glyph unicode="H" horiz-adv-x="1433" d="M92 180v965q0 190 174 190h60q180 0 180 -190v-307h424v307q0 190 172 190h59q180 0 180 -190v-965q0 -190 -180 -190h-59q-172 0 -172 190v314h-424v-314q0 -190 -180 -190h-60q-174 0 -174 190z" />
<glyph unicode="I" horiz-adv-x="626" d="M106 180v965q0 190 175 190h59q178 0 178 -190v-965q0 -190 -178 -190h-59q-174 0 -175 190z" />
<glyph unicode="J" horiz-adv-x="1101" d="M31 236q0 57 20.5 97t45 64.5t46 35.5t23.5 7q98 -121 242 -121q94 0 136 47.5t42 165.5v613q0 190 174 190h59q178 0 178 -190v-619q0 -287 -133 -421t-395 -134q-215 0 -326.5 71t-111.5 194z" />
<glyph unicode="K" horiz-adv-x="1335" d="M92 180v965q0 190 174 190h60q178 0 178 -190v-395l319 446q53 78 111.5 108.5t114.5 30.5q53 0 97 -20.5t75.5 -47t48 -51t12.5 -34.5l-371 -506l389 -535q2 -2 2 -5q0 -8 -13 -28q-17 -26 -51 -51.5t-82 -46t-103 -20.5q-59 0 -115.5 29.5t-110.5 107.5l-323 446v-393 q0 -190 -178 -190h-60q-174 0 -174 190z" />
<glyph unicode="L" horiz-adv-x="1130" d="M92 225v920q0 190 174 190h60q178 0 178 -190v-789h403q188 0 189 -170v-6q0 -180 -189 -180h-604q-102 0 -156.5 56.5t-54.5 168.5z" />
<glyph unicode="M" horiz-adv-x="1581" d="M92 180v959q0 98 47 147t137 49h117q41 0 70 -5t49 -18.5t34.5 -35t28.5 -51.5l216 -531l217 531q29 68 66.5 89t109.5 21h114q188 0 189 -196v-959q0 -94 -36 -142t-124 -48h-65q-86 0 -124 48t-38 142v568l-137 -390q-6 -18 -13.5 -36.5t-24 -33t-48 -22.5t-89.5 -8 q-57 0 -87.5 8t-47 22.5t-22.5 32t-15 37.5l-137 373v-551q0 -94 -34.5 -142t-125.5 -48h-65q-86 0 -124 48t-38 142z" />
<glyph unicode="N" horiz-adv-x="1439" d="M92 180v965q0 96 45 143t125 47h39q37 0 61.5 -5t45 -17.5t39 -30.5t38.5 -43l476 -618v524q0 190 178 190h35q172 0 172 -190v-965q0 -96 -44.5 -143t-121.5 -47h-33q-37 0 -62.5 5t-45 15t-37 27.5t-37.5 42.5l-486 629v-529q0 -190 -178 -190h-35q-174 0 -174 190z " />
<glyph unicode="O" d="M51 664q0 152 52.5 277.5t145.5 217.5t221 143.5t282 51.5t281.5 -51.5t220 -143.5t144.5 -218t52 -277q0 -152 -52 -279t-144.5 -219t-221 -143.5t-282.5 -51.5t-282 51.5t-220 143.5t-144.5 219t-52.5 279zM457 664q0 -147 80 -236.5t215 -89.5q133 0 212.5 89 t79.5 237q0 147 -79.5 237t-214.5 90t-214 -88t-79 -239z" />
<glyph unicode="P" horiz-adv-x="1257" d="M92 180v916q0 111 54.5 170t156.5 59h350q287 0 436.5 -121t149.5 -360q0 -238 -145.5 -355.5t-427.5 -117.5h-160v-191q0 -92 -45 -141t-135 -49h-60q-84 0 -129 48t-45 142zM500 672h149q94 0 142.5 44t48.5 126q0 174 -197 174h-143v-344z" />
<glyph unicode="Q" d="M51 664q0 152 52.5 277.5t146.5 217.5t222 143.5t282 51.5t281.5 -51.5t220 -142.5t143.5 -218t51 -278q0 -104 -31 -199.5t-86 -179.5q0 2 25.5 -26t56.5 -62l82 -91q1 -1 1 -2q0 -6 -12 -24q-16 -21 -45.5 -45.5t-73.5 -44t-99 -19.5q-41 0 -90.5 17.5t-104.5 62.5 q-72 -39 -152.5 -59.5t-166.5 -20.5q-154 0 -283 51.5t-222 143.5t-145.5 219t-52.5 279zM457 659q0 -70 21.5 -129t61.5 -102t94 -67.5t120 -24.5q37 0 69 6l-24 27q-25 27 -41.5 60.5t-19.5 68.5q-1 7 -1 14q0 27 9 52q12 32 40 57l11 10q43 33 88 33q19 0 39 -6 q65 -19 118 -78l7 -9q10 47 10 93q0 72 -20.5 131t-59.5 103t-94.5 68.5t-122.5 24.5q-70 0 -127 -24.5t-96 -68.5t-60.5 -105.5t-21.5 -133.5z" />
<glyph unicode="R" horiz-adv-x="1331" d="M92 227v869q0 113 54.5 171t156.5 58h410q279 0 416 -110.5t137 -325.5q0 -145 -73 -245.5t-214 -141.5l299 -371q1 -2 1 -4q0 -9 -8 -25q-11 -22 -40 -47.5t-76 -45t-113 -19.5q-47 0 -83.5 10t-69.5 31.5t-61.5 54.5t-61.5 78l-186 248h-76v-232q0 -92 -45 -141 t-135 -49h-58q-86 0 -130 62.5t-44 174.5zM498 705h172q92 0 138 39.5t46 113.5q0 156 -188 156h-168v-309z" />
<glyph unicode="S" horiz-adv-x="1204" d="M39 244q0 37 19.5 73.5t44 64.5t46 44t25.5 12q33 -29 78 -56.5t97 -49t108.5 -34.5t109.5 -13q184 0 185 104q0 31 -18.5 48.5t-51.5 27.5t-76 17t-92 18q-82 16 -162 43.5t-143.5 76t-101 119t-37.5 174.5q0 205 145 323t420 118q131 0 225 -20.5t155.5 -56.5t90.5 -81 t29 -94q0 -43 -21.5 -82t-48.5 -66.5t-49.5 -43t-26.5 -13.5q-66 61 -161 102t-189 41q-178 0 -178 -104q0 -29 18.5 -43t52 -23.5t78.5 -15.5t97 -18q98 -20 182 -54t145.5 -83.5t96 -117t34.5 -159.5q0 -217 -148.5 -334t-449.5 -117q-145 0 -246.5 22.5t-164 61.5 t-90 88.5t-27.5 100.5z" />
<glyph unicode="T" horiz-adv-x="1267" d="M20 1147v8q0 170 189 170h850q190 0 190 -170v-8q0 -178 -190 -178h-215v-789q0 -94 -47 -142t-138 -48h-57q-170 0 -170 190v789h-223q-188 0 -189 178z" />
<glyph unicode="U" horiz-adv-x="1390" d="M88 582v563q0 96 47 143t133 47h51q180 0 181 -190v-565q0 -246 196 -246q100 0 147.5 59.5t47.5 188.5v563q0 96 47 143t133 47h53q178 0 179 -190v-563q0 -301 -153 -451.5t-456 -150.5q-606 0 -606 602z" />
<glyph unicode="V" horiz-adv-x="1380" d="M12 1194q-1 3 -1 7q1 13 15 31q20 24 56.5 47.5t84.5 39.5t99 16q78 0 138.5 -51t89.5 -141l206 -656l205 656q29 102 90.5 147t128.5 45q49 0 96.5 -16t81.5 -40q36 -23 54 -47q14 -18 13 -31q0 -4 -1 -7l-436 -1051q-35 -84 -90.5 -118.5t-147.5 -34.5t-144 33.5 t-89 119.5z" />
<glyph unicode="W" horiz-adv-x="2013" d="M61 1192q-2 6 13.5 28.5t48.5 47t81 43t113 18.5q31 0 66 -9t65.5 -33.5t56 -66.5t38.5 -108l110 -571l140 516q16 78 78.5 114.5t146.5 36.5q78 0 140.5 -40t78.5 -111l139 -516l111 577q10 59 32.5 100.5t53.5 66t65.5 35.5t71.5 11q61 0 107.5 -18.5t76 -43t44 -47 t12.5 -30.5l-301 -1047q-23 -88 -84.5 -121.5t-157.5 -33.5q-92 0 -153.5 31.5t-88.5 123.5l-155 547l-154 -547q-25 -90 -88.5 -122.5t-155.5 -32.5q-96 0 -154.5 31.5t-84.5 123.5z" />
<glyph unicode="X" horiz-adv-x="1374" d="M29 133l374 524l-370 523q-6 10 15.5 34.5t59 51t88 46t105.5 19.5q63 0 117.5 -32.5t101.5 -114.5l172 -293l176 293q41 78 100.5 112.5t118.5 34.5q53 0 101.5 -19.5t85.5 -45.5q36 -26 56 -50q14 -18 15 -28q0 -4 -2 -6l-374 -525l374 -522q1 -2 1 -5q0 -10 -15 -30 q-20 -26 -57 -51.5t-86 -45t-105 -19.5q-61 0 -119.5 32.5t-105.5 116.5l-174 293l-178 -295q-47 -86 -103.5 -117.5t-115.5 -31.5q-53 0 -101.5 19t-85.5 46t-56 51q-14 19 -14 29q0 4 1 6z" />
<glyph unicode="Y" horiz-adv-x="1308" d="M-8 1178q-1 2 -1 5q0 10 8 27q11 25 44 51.5t86 48t131 21.5q53 0 102.5 -32.5t90.5 -108.5l204 -350l211 348q47 80 95.5 112.5t99.5 32.5q72 0 122 -21.5t80.5 -49t42.5 -52.5q10 -20 10 -28q0 -3 -1 -4l-455 -660v-338q0 -190 -178 -190h-59q-174 0 -174 190v340 l-19 29q-20 29 -53 75t-74 105t-84 121z" />
<glyph unicode="Z" horiz-adv-x="1271" d="M63 162v18q0 45 7.5 77t21.5 58.5t33.5 50t44.5 50.5l504 569h-414q-90 0 -136 37t-46 125v16q0 86 46 124t136 38h741q55 0 95.5 -13.5t66 -36t36.5 -51t11 -59.5v-20q0 -45 -8 -77t-21.5 -58.5t-34 -49t-44.5 -49.5l-514 -571h452q92 0 137.5 -37t45.5 -125v-16 q0 -86 -45 -124t-138 -38h-770q-55 0 -95 14.5t-64.5 37t-36 51t-11.5 59.5z" />
<glyph unicode="[" horiz-adv-x="831" d="M94 -182v1302q0 111 53.5 169.5t157.5 58.5h309q98 0 143.5 -34t45.5 -114v-12q0 -84 -45 -119t-144 -35h-157v-1130h164q98 0 143 -34t45 -112v-12q0 -84 -45 -119t-143 -35h-316q-211 0 -211 226z" />
<glyph unicode="\" horiz-adv-x="782" d="M12 1214q0 43 18.5 71t47 43t61.5 21.5t64 6.5q35 0 59.5 -5t26.5 -10l499 -1554q16 -59 17 -90q0 -45 -18.5 -72.5t-47 -43t-61.5 -20.5t-64 -5q-35 0 -59.5 4t-26.5 8l-499 1556q-10 29 -13.5 51.5t-3.5 38.5z" />
<glyph unicode="]" horiz-adv-x="831" d="M23 -242q0 78 45 112t145 34h164v1130h-158q-100 0 -145 35t-45 119v12q0 80 45 114t145 34h309q102 0 155.5 -58.5t53.5 -169.5v-1302q0 -113 -53 -169.5t-156 -56.5h-315q-100 0 -145 35t-45 119v12z" />
<glyph unicode="^" horiz-adv-x="1024" d="M172 1016q0 53 35 104t87 94t111.5 75t106.5 44q47 -12 106.5 -44t110.5 -75t86 -94t35 -104q0 -51 -34 -85t-91 -34q-63 0 -118.5 50t-94.5 140q-41 -90 -95.5 -140t-117.5 -50q-57 0 -92 34t-35 85z" />
<glyph unicode="_" horiz-adv-x="1056" d="M14 -133q0 57 40 95t118 38h715q78 0 116.5 -38t38.5 -95v-17q0 -59 -38.5 -97t-116.5 -38h-715q-78 0 -118 38t-40 97v17z" />
<glyph unicode="`" horiz-adv-x="1024" d="M170 1372q0 66 51 109t127 43q53 0 109 -33q51 -31 95 -81t74.5 -101.5t45 -93t8.5 -54.5q-8 -12 -45 -24.5t-92.5 -14.5t-122.5 10.5t-133 49.5q-53 31 -85 84t-32 106z" />
<glyph unicode="a" horiz-adv-x="1175" d="M43 279q0 174 148.5 258t472.5 86h41q-12 133 -158 133q-47 0 -82 -12.5t-58.5 -32t-39 -43t-25.5 -45.5q0 -1 -41 -3q-4 0 -9 -1q-37 -1 -81 11q-49 12 -89 46.5t-40 99.5q0 121 117.5 190.5t369.5 69.5q274 0 399.5 -106.5t125.5 -325.5v-577q0 -16 -47.5 -30.5 t-104.5 -14.5q-174 0 -221 165q-49 -80 -138 -123.5t-202 -43.5q-76 0 -138.5 21.5t-107.5 61t-68.5 95t-23.5 121.5zM416 313q0 -45 33 -69.5t86 -24.5q78 0 125 48t47 126v35h-50q-119 -4 -180 -29.5t-61 -85.5z" />
<glyph unicode="b" horiz-adv-x="1288" d="M90 180v1217q0 10 46 27.5t106 17.5q43 0 86 -13.5t77.5 -47t56 -91t21.5 -147.5v-252q47 68 124 106.5t171 38.5q104 0 190.5 -36.5t148 -105.5t94 -167t32.5 -221q0 -117 -32.5 -215t-94 -169t-147.5 -111t-191 -40q-106 0 -184 51.5t-115 129.5q-6 -90 -52 -126 t-118 -36h-41q-78 0 -128 41t-50 149zM481 457q0 -86 53.5 -133.5t135.5 -47.5q92 0 146 61.5t54 166.5q0 104 -53 165.5t-145 61.5q-68 0 -117 -32.5t-74 -86.5v-155z" />
<glyph unicode="c" horiz-adv-x="1048" d="M45 506q0 115 40 212t111.5 167.5t171 109.5t218.5 39q121 0 203.5 -27.5t133 -69.5t73 -89t22.5 -84q0 -57 -32 -94t-70.5 -55.5t-71.5 -22.5t-35 2q-25 59 -71 97t-130 38q-92 0 -151.5 -63.5t-59.5 -159.5q0 -100 58.5 -165t152.5 -65q78 0 127 38t74 98q2 6 35 3 t71.5 -21.5t70.5 -55.5t32 -98q0 -37 -23.5 -84t-76 -88t-134 -69t-198.5 -28q-121 0 -221.5 39t-171 109.5t-109.5 169t-39 217.5z" />
<glyph unicode="d" horiz-adv-x="1288" d="M45 506q0 123 33 220t94 167t147.5 106.5t192.5 36.5q96 0 172 -37.5t121 -99.5v498q0 10 46 27.5t105 17.5q43 0 86 -13.5t78 -47t56.5 -91t21.5 -147.5v-963q0 -106 -48 -148t-124 -42h-41q-76 0 -124 35.5t-54 134.5q-39 -86 -117 -137.5t-182 -51.5t-189.5 39 t-146.5 109.5t-94 169t-33 217.5zM418 504q0 -102 55 -165t145 -63q80 0 134.5 47.5t54.5 131.5v157q-25 55 -72 87t-112 32q-92 0 -148.5 -60.5t-56.5 -166.5z" />
<glyph unicode="e" horiz-adv-x="1153" d="M45 496q0 117 40 216t111.5 170.5t171 112.5t218.5 41q117 0 214 -37.5t166.5 -105.5t108.5 -160t39 -203v-24q-2 -45 -18.5 -74t-61.5 -29h-641q18 -80 80 -119.5t156 -39.5q92 0 154.5 37.5t90.5 91.5q0 2 29 -3t62.5 -21.5t61.5 -50.5t28 -89q0 -102 -114 -170 t-331 -68q-131 0 -235.5 36t-178 103.5t-112.5 165t-39 220.5zM387 606h373q-4 78 -50 126t-128 48q-78 0 -131.5 -49t-63.5 -125z" />
<glyph unicode="f" horiz-adv-x="851" d="M6 860v21q0 135 160 135h41v26q0 119 28.5 198t81 126t123 66.5t154.5 19.5q154 0 222.5 -56.5t68.5 -129.5q0 -33 -11.5 -61.5t-24.5 -49t-25.5 -33t-14.5 -10.5q-23 23 -53.5 36t-71.5 13q-49 0 -74.5 -25.5t-25.5 -86.5v-33h86q160 0 159 -142v-22q0 -133 -159 -133 h-70v-539q0 -109 -48 -149.5t-128 -40.5h-41q-76 0 -126 42t-50 148v539h-41q-160 0 -160 141z" />
<glyph unicode="g" horiz-adv-x="1105" d="M-18 -145q0 100 85 163.5t226 79.5q-35 31 -35 88q0 41 24.5 77t63.5 56q-141 35 -219 121t-78 211q0 84 37 155t103.5 121t157.5 78.5t200 28.5q51 0 97 -7t89 -19l35 69q35 70 77 97.5t99 27.5q51 0 87 -24.5t59.5 -54t33.5 -55.5q6 -17 6 -25q0 -4 -2 -5l-176 -159 q45 -47 70 -103.5t25 -122.5q0 -166 -127 -260t-355 -98v-2q0 -18 18.5 -29.5t51.5 -21t79 -18.5t101 -25q53 -14 104.5 -39t92.5 -61t66.5 -85t25.5 -114q0 -150 -146.5 -241t-418.5 -91q-293 0 -425 69.5t-132 217.5zM352 -117q0 -37 46 -60.5t145 -23.5q98 0 143 23.5 t45 62.5t-59.5 55.5t-149.5 34.5q-78 -8 -124 -30.5t-46 -61.5zM403 655q0 -66 40.5 -105.5t103.5 -39.5t102 40t39 105q0 66 -39 105t-104 39q-61 0 -101.5 -39t-40.5 -105z" />
<glyph unicode="h" horiz-adv-x="1241" d="M90 180v1217q0 10 46 27.5t106 17.5q43 0 86 -13.5t77.5 -47t56 -91t21.5 -147.5v-289q47 78 123 130t195 52q98 0 166.5 -34.5t111.5 -92t62.5 -132.5t19.5 -156v-441q0 -106 -48 -148t-126 -42h-39q-80 0 -130 41t-50 149v377q0 76 -35 118t-94 42q-76 0 -116 -44 t-40 -122v-371q0 -109 -49 -149.5t-125 -40.5h-41q-78 0 -128 41t-50 149z" />
<glyph unicode="i" horiz-adv-x="585" d="M84 1317q0 86 55.5 135t151.5 49q98 0 155.5 -49t57.5 -135t-55.5 -136.5t-151.5 -50.5q-98 0 -155.5 50.5t-57.5 136.5zM96 180v656q0 109 50.5 149.5t125.5 40.5h41q80 0 128 -40t48 -150v-656q0 -106 -48 -148t-124 -42h-41q-80 0 -130 41t-50 149z" />
<glyph unicode="j" horiz-adv-x="585" d="M-160 -209q0 31 11.5 58.5t24.5 47t25.5 31t14.5 9.5q16 -23 43 -33t55 -10q82 0 82 92v850q0 109 50.5 149.5t125.5 40.5h41q80 0 128 -40t48 -150v-871q0 -180 -95 -277.5t-275 -97.5q-133 0 -206 49.5t-73 151.5zM84 1317q0 86 55.5 135t151.5 49q98 0 155.5 -49 t57.5 -135t-55.5 -136.5t-151.5 -50.5q-98 0 -155.5 50.5t-57.5 136.5z" />
<glyph unicode="k" horiz-adv-x="1148" d="M90 180v1217q0 10 46 27.5t106 17.5q43 0 86 -13.5t77.5 -47t56 -91t21.5 -147.5v-535l203 303q41 66 98.5 92.5t108.5 26.5q45 0 85 -15.5t69.5 -36t46 -40.5t12.5 -29l-272 -387l299 -420q1 -1 1 -3q0 -9 -14 -25q-18 -20 -49 -40t-72 -35t-84 -15q-53 0 -111.5 26.5 t-101.5 91.5l-219 318v-240q0 -106 -49 -148t-125 -42h-41q-78 0 -128 41t-50 149z" />
<glyph unicode="l" horiz-adv-x="585" d="M96 180v1217q0 10 46 27.5t106 17.5q43 0 86 -13.5t77.5 -47t56 -91t21.5 -147.5v-963q0 -106 -48 -148t-124 -42h-41q-80 0 -130 41t-50 149z" />
<glyph unicode="m" horiz-adv-x="1861" d="M90 180v801q0 10 46 27.5t106 17.5q35 0 68.5 -8t64.5 -27.5t54.5 -53.5t37.5 -85q53 80 127 132t190 52q131 0 207 -55t109 -147q53 86 130 144t204 58q98 0 164.5 -30.5t107.5 -83t58.5 -124t17.5 -151.5v-467q0 -106 -48 -148t-124 -42h-41q-80 0 -130 41t-50 149v395 q0 141 -121 142q-43 0 -78 -20.5t-57 -53.5v-463q0 -109 -48.5 -149.5t-126.5 -40.5h-38q-80 0 -130.5 41t-50.5 149v393q0 143 -121 144q-43 0 -77.5 -20.5t-57.5 -53.5v-463q0 -109 -49 -149.5t-125 -40.5h-41q-78 0 -128 41t-50 149z" />
<glyph unicode="n" horiz-adv-x="1241" d="M90 180v801q0 10 46 27.5t106 17.5q35 0 68.5 -8t64.5 -28.5t54.5 -54.5t37.5 -85q53 82 132 134t202 52q98 0 166.5 -32.5t111.5 -88t62.5 -128t19.5 -152.5v-455q0 -106 -48 -148t-126 -42h-39q-80 0 -130 41t-50 149v387q0 70 -35 110t-96 40q-53 0 -92 -23.5 t-62 -58.5v-455q0 -109 -49 -149.5t-125 -40.5h-41q-78 0 -128 41t-50 149z" />
<glyph unicode="o" horiz-adv-x="1200" d="M45 506q0 119 40 217t113.5 168t177 107.5t228.5 37.5t226.5 -37.5t174 -108.5t111.5 -168t39 -218t-40 -219.5t-112.5 -168t-175 -107.5t-229.5 -38t-229.5 38t-174 107.5t-110.5 168t-39 221.5zM379 506q0 -104 61.5 -169t159.5 -65q96 0 158.5 65.5t62.5 166.5 q0 104 -61.5 168.5t-159.5 64.5t-159.5 -64.5t-61.5 -166.5z" />
<glyph unicode="p" horiz-adv-x="1288" d="M90 -207v1188q0 10 46 27.5t106 17.5q35 0 69.5 -8t65.5 -29.5t55.5 -56.5t36.5 -90q35 88 117 141t192 53q104 0 190.5 -36.5t148 -105.5t94 -167t32.5 -221q0 -117 -32.5 -215t-94 -169t-147.5 -111t-191 -40q-104 0 -181 49.5t-114 126.5v-354q0 -106 -49 -147 t-125 -41h-41q-78 0 -128 40t-50 148zM481 457q0 -86 53.5 -133.5t135.5 -47.5q92 0 146 61.5t54 166.5q0 104 -53 165.5t-145 61.5q-68 0 -117 -32.5t-74 -86.5v-155z" />
<glyph unicode="q" horiz-adv-x="1288" d="M45 506q0 123 33 220t94 167t147.5 106.5t192.5 36.5q109 0 191.5 -48t121.5 -124q14 47 39 79t54.5 50.5t63.5 25.5t67 7q59 0 104 -17.5t45 -27.5v-1188q0 -109 -50 -148.5t-128 -39.5h-41q-76 0 -125 41t-49 147v361q-41 -84 -117 -133.5t-180 -49.5t-189.5 39 t-146.5 109.5t-94 169t-33 217.5zM418 504q0 -102 55 -165t145 -63q80 0 134.5 48.5t54.5 132.5v157q-25 53 -72 85t-112 32q-92 0 -148.5 -60.5t-56.5 -166.5z" />
<glyph unicode="r" horiz-adv-x="956" d="M90 180v801q0 10 46 27.5t106 17.5q35 0 68.5 -8t64.5 -28.5t55.5 -55.5t38.5 -88q29 86 90.5 138t153.5 52q98 0 156.5 -57t58.5 -154q0 -59 -19.5 -99t-43 -64.5t-44 -35t-22.5 -8.5q-25 23 -62 38.5t-80 15.5q-174 0 -174 -250v-242q0 -109 -49 -149.5t-125 -40.5h-41 q-78 0 -128 41t-50 149z" />
<glyph unicode="s" horiz-adv-x="1007" d="M27 209q0 33 14 61.5t32.5 49t34 31.5t17.5 9q53 -49 137 -83.5t189 -34.5q61 0 92.5 10t31.5 41q0 37 -45 47t-118 27q-47 10 -109.5 27.5t-118 52t-94.5 93t-39 150.5q0 78 32 141.5t90 108.5t141 69.5t186 24.5q221 0 327.5 -61.5t106.5 -169.5q0 -35 -15.5 -64.5 t-36 -51t-37 -33t-20.5 -9.5q-55 55 -135 90t-160 35q-57 0 -88.5 -11t-31.5 -44q0 -35 49 -44t127 -28q49 -10 112.5 -27.5t122 -53.5t98 -93t39.5 -147q0 -162 -125 -252t-352 -90q-238 0 -346 60t-108 169z" />
<glyph unicode="t" horiz-adv-x="899" d="M18 852v22q0 141 160 142h23v98q0 94 45 142.5t131 48.5h33q78 0 127 -41t49 -150v-98h116q154 0 154 -135v-21q0 -141 -158 -141h-120v-340q0 -102 86 -103q41 0 66.5 17.5t45.5 44.5q2 4 16.5 -4t30 -26.5t27.5 -47.5t12 -65q0 -98 -82 -161t-223 -63q-182 0 -269 91.5 t-87 273.5v383h-23q-160 0 -160 133z" />
<glyph unicode="u" horiz-adv-x="1241" d="M80 373v463q0 109 48 149.5t126 40.5h39q80 0 130 -40t50 -150v-394q0 -70 35 -109.5t98 -39.5q49 0 89 22.5t63 57.5v463q0 109 48 149.5t126 40.5h41q78 0 128 -40t50 -150v-801q0 -4 -12.5 -12.5t-34 -15.5t-48 -12t-57.5 -5q-33 0 -66.5 8t-64 27.5t-55.5 52.5 t-39 84q-53 -82 -132 -136.5t-202 -54.5q-98 0 -166.5 34t-111.5 89.5t-62.5 128t-19.5 150.5z" />
<glyph unicode="v" horiz-adv-x="1169" d="M14 915q-2 8 15.5 27t49.5 38t71.5 34.5t82.5 15.5q63 0 119 -38t88 -142l148 -471l149 471q33 104 87.5 142t113.5 38q43 0 83 -15.5t71 -34.5q30 -20 46 -38q13 -15 14 -23q0 -2 -1 -4l-356 -837q-12 -29 -37 -46.5t-54.5 -27.5t-60.5 -13t-55 -3q-25 0 -55.5 3 t-61.5 13t-56.5 27.5t-37.5 46.5z" />
<glyph unicode="w" horiz-adv-x="1656" d="M20 915q-2 8 19.5 28t56.5 39t79 33.5t85 14.5q29 0 56.5 -6t52 -23.5t43 -46t26.5 -73.5l86 -484l129 426q16 59 69.5 91t123.5 32q68 0 119 -31.5t67 -91.5l113 -405l86 463q16 86 66.5 117.5t103.5 31.5q43 0 86 -14.5t77 -33.5q32 -18 54 -38q18 -16 19 -26 q0 -2 -1 -3l-268 -823q-8 -33 -30.5 -54.5t-50 -31.5t-57.5 -14t-54 -4q-47 0 -82 5t-60.5 18.5t-44 39t-31.5 66.5l-129 395l-124 -395q-25 -82 -75.5 -105.5t-140.5 -23.5q-25 0 -54 4t-57 15t-49.5 31.5t-33.5 53.5z" />
<glyph unicode="x" horiz-adv-x="1138" d="M31 109l282 399l-280 401q-6 6 11 26.5t48 41t74 37t88 16.5q59 0 113.5 -27.5t87.5 -99.5l112 -198l113 198q35 68 88 97.5t111 29.5q47 0 90 -16.5t75 -37.5q34 -20 50 -40q13 -16 13 -24q0 -2 -1 -3l-283 -401l281 -399q6 -8 -10.5 -28t-49 -41.5t-76.5 -37.5t-96 -16 q-59 0 -110 30.5t-82 96.5q-33 57 -57 100q-23 37 -39.5 68.5t-18.5 29.5l-110 -196q-63 -129 -199 -129q-47 0 -90 16t-75 38q-32 20 -49 40q-13 14 -13 24q0 3 2 5z" />
<glyph unicode="y" horiz-adv-x="1167" d="M14 915q-2 8 15.5 27t49.5 38t73 34.5t84 15.5q61 0 117.5 -38t86.5 -142l154 -442l143 442q31 102 87.5 141t113.5 39q43 0 83 -14.5t70.5 -33.5t48.5 -38q14 -16 14 -25q0 -2 -1 -4l-446 -1126q-39 -98 -92.5 -136t-116.5 -38q-43 0 -83 14.5t-70 33t-46 35.5t-12 26 l166 350q-35 8 -60.5 25.5t-40.5 47.5z" />
<glyph unicode="z" horiz-adv-x="1040" d="M47 131v16q0 35 4 58.5t12.5 41t21.5 34t32 34.5l366 406h-276q-150 0 -150 137v16q0 68 38 105t112 37h627q74 0 108.5 -42t34.5 -89v-15q0 -35 -4 -57t-12.5 -40.5t-22.5 -34t-33 -36.5l-379 -405h324q147 0 147 -139v-17q0 -139 -147 -139h-664q-74 0 -106.5 41 t-32.5 88z" />
<glyph unicode="{" horiz-adv-x="1017" d="M37 471q0 53 9 91t31.5 67.5t59.5 55.5t92 52l56 29q18 164 68 274.5t119 180t151 99.5t163 30q90 0 149.5 -46.5t59.5 -125.5q0 -31 -9 -53.5t-20.5 -38t-22.5 -23.5t-15 -8q-80 -6 -133.5 -34t-87 -82t-50 -135t-22.5 -194l-242 -139l242 -141q6 -113 22.5 -194 t49 -134t86 -80.5t133.5 -34.5q4 0 15 -8t23.5 -23.5t21.5 -38t9 -53.5q0 -80 -59.5 -127t-149.5 -47q-82 0 -163.5 31t-151.5 99.5t-120 180t-68 273.5l-54 29q-59 31 -97 56.5t-59.5 55t-28.5 66.5t-7 90z" />
<glyph unicode="|" horiz-adv-x="593" d="M100 -219v1380q0 106 50.5 147.5t125.5 41.5h41q80 0 128.5 -40t48.5 -149v-1380q0 -106 -48.5 -147.5t-123.5 -41.5h-41q-80 0 -130.5 40t-50.5 149z" />
<glyph unicode="}" horiz-adv-x="1017" d="M20 1178q0 80 60.5 126t150.5 46q82 0 164 -30t150.5 -99.5t119 -180t68.5 -274.5l55 -29q53 -27 90 -52.5t60 -55t33 -67.5t10 -91t-8 -91t-29.5 -66.5t-58.5 -54.5t-97 -56l-53 -29q-18 -162 -68.5 -273.5t-120 -180t-150.5 -99.5t-165 -31q-90 0 -149 47.5t-59 126.5 q0 31 9 53.5t21.5 38t23.5 23.5t15 8q78 6 131 34t87 81t50.5 134t22.5 194l242 141l-242 139q-6 113 -22.5 194t-50.5 135t-87 82t-133 34q-4 0 -15.5 8t-23.5 23.5t-21.5 38t-9.5 53.5z" />
<glyph unicode="~" horiz-adv-x="1021" d="M139 446q0 53 17.5 95.5t46 72t66.5 45t79 15.5q150 0 275 -125q18 51 52 86t81 35q57 0 92 -38t35 -91t-17.5 -95.5t-46 -72t-67.5 -45t-80 -15.5q-147 0 -275 127q-16 -53 -50 -88t-83 -35q-57 0 -91 38t-34 91z" />
<glyph unicode="&#xa1;" horiz-adv-x="608" d="M78 227l104 535q16 63 40 93t65 30h39q39 0 60.5 -30t37.5 -93l104 -535q29 -113 -27.5 -182.5t-168.5 -69.5h-51q-117 0 -175.5 70t-27.5 182zM111 1143v35q0 166 172 165h47q166 0 166 -165v-35q0 -166 -166 -166h-47q-90 0 -131 40t-41 126z" />
<glyph unicode="&#xa2;" horiz-adv-x="1069" d="M25 580q0 203 108.5 339t290.5 183v74q0 94 37 142t123 48h10q88 0 124 -46t36 -144v-62q152 -23 224.5 -88t72.5 -160q0 -55 -31 -90t-69 -54.5t-69.5 -24.5t-35.5 1q-41 63 -90 93t-131 30q-102 0 -166 -66.5t-64 -172.5q0 -111 65.5 -177.5t170.5 -66.5q78 0 128 29.5 t91 95.5q4 6 36 1t69.5 -23.5t68.5 -53.5t31 -90q0 -92 -75 -160.5t-222 -91.5v-68q0 -92 -37 -140t-123 -48h-8q-90 0 -125 45t-35 143v74q-188 45 -296.5 181.5t-108.5 347.5z" />
<glyph unicode="&#xa3;" horiz-adv-x="1273" d="M35 147v19q0 76 41 109.5t135 33.5h6l33 180h-33q-57 0 -93 34t-36 89v33q0 53 37 87t92 34h82l29 162q39 217 164.5 321.5t322.5 104.5q195 0 306.5 -77t111.5 -208q0 -76 -34 -115t-75 -55t-74.5 -16t-33.5 2q-14 74 -55 115.5t-127 41.5q-72 0 -114 -37.5t-58 -127.5 l-21 -111h223q59 0 95 -34t36 -87v-33q0 -55 -35.5 -89t-95.5 -34h-272l-31 -180h492q94 0 135 -33.5t41 -109.5v-19q0 -78 -41 -112.5t-135 -34.5h-842q-96 0 -136 35t-40 112z" />
<glyph unicode="&#xa4;" horiz-adv-x="1298" d="M31 506v29q0 39 31.5 67.5t97.5 28.5h33v61h-33q-66 0 -97.5 29t-31.5 70v28q0 37 31.5 66.5t97.5 29.5h53q49 209 204.5 324t385.5 115q217 0 338 -78t121 -201q0 -49 -27 -86t-60.5 -60.5t-63.5 -33.5t-34 -6q-55 66 -112.5 98.5t-153.5 32.5q-68 0 -120 -25.5 t-83 -79.5h242q68 0 98.5 -29.5t30.5 -66.5v-28q0 -41 -30.5 -70t-98.5 -29h-277v-61h277q68 0 98.5 -29t30.5 -67v-29q0 -39 -30.5 -68.5t-98.5 -29.5h-240q31 -53 83 -79t120 -26q98 0 155.5 35t110.5 102q4 4 34 -6t63.5 -33.5t60.5 -61.5t27 -87t-26 -98.5t-80 -90 t-141 -66.5t-210 -26q-231 0 -388 113t-206 324h-53q-66 0 -97.5 29.5t-31.5 68.5z" />
<glyph unicode="&#xa5;" horiz-adv-x="1318" d="M80 315v29q0 41 35 74t106 33h260v71h-260q-72 0 -106.5 33t-34.5 76v28q0 43 35 76t106 33h137q-43 66 -90 136.5t-88 129.5q-47 70 -94 135q-4 6 2 34t31.5 57.5t72 53t121.5 23.5q63 0 112.5 -31.5t84.5 -109.5l154 -309l159 307q41 82 90.5 114.5t112.5 32.5 t105.5 -24.5t67 -55t32.5 -58t4 -34.5l-272 -401h137q72 0 105.5 -33t33.5 -76v-28q0 -43 -34 -76t-105 -33h-256v-71h256q72 0 105.5 -33t33.5 -74v-29q0 -45 -34 -77.5t-105 -32.5h-256v-33q0 -94 -37 -142t-127 -48h-41q-86 0 -122 48t-36 142v33h-260q-72 0 -106.5 32.5 t-34.5 77.5z" />
<glyph unicode="&#xa7;" horiz-adv-x="1230" d="M45 426q0 199 215 283q-68 37 -111 96t-43 156q0 90 35 161.5t101.5 123.5t163 80t219.5 28q139 0 229 -23.5t143.5 -58.5t75 -78t21.5 -82t-18.5 -70.5t-41 -54t-42 -33t-23.5 -8.5q-68 61 -151 98t-169 37q-154 0 -153 -84q0 -23 20.5 -39t55 -29.5t82.5 -25.5t106 -24 q72 -18 147.5 -43t137 -65t101.5 -98.5t40 -144.5q0 -195 -209 -282q66 -35 108.5 -95.5t42.5 -158.5q0 -88 -37.5 -161t-108.5 -124t-174 -79.5t-235 -28.5q-258 0 -378.5 70.5t-120.5 185.5q0 33 16 62.5t36.5 51t40 32.5t23.5 7q31 -29 79 -53.5t102.5 -42.5t109 -28.5 t99.5 -10.5q86 0 122.5 20.5t36.5 63.5q0 23 -16 39t-46 28.5t-71 21.5t-90 22q-74 16 -157 39.5t-152.5 63.5t-115.5 101.5t-46 153.5zM381 487q0 -39 27.5 -63.5t74.5 -40.5t107.5 -28.5t128.5 -24.5q66 16 98.5 50t32.5 79q0 39 -24.5 64.5t-67.5 43t-99.5 29.5 t-119.5 25q-76 -16 -117 -52.5t-41 -81.5z" />
<glyph unicode="&#xa8;" horiz-adv-x="1024" d="M100 1288q0 86 49.5 133t126.5 47q86 0 136.5 -47t50.5 -133t-49 -134t-131 -48q-84 0 -133.5 47t-49.5 135zM561 1288q0 86 49 133t131 47q84 0 133.5 -47t49.5 -133t-49 -134t-127 -48q-86 0 -136.5 47t-50.5 135z" />
<glyph unicode="&#xa9;" horiz-adv-x="1513" d="M68 664q0 150 50 276.5t141 218.5t218 143.5t281 51.5t279.5 -51.5t217 -142.5t141.5 -218t50 -278q0 -150 -50 -277t-141.5 -219t-217 -144.5t-279.5 -52.5t-282 51.5t-218 143.5t-140 219t-50 279zM211 664q0 -121 40 -222.5t111.5 -175t172 -115.5t223.5 -42t223 40.5 t172 114.5t111 176.5t39 223.5t-40 222t-112 175t-173 115t-222 41q-123 0 -223.5 -41t-172 -115t-110.5 -175.5t-39 -221.5zM393 662q0 82 29 150.5t79 118.5t120.5 77.5t154.5 27.5q96 0 154.5 -26.5t87.5 -55.5q16 -18 26.5 -37.5t8.5 -50.5q0 -31 -17.5 -55.5t-38 -39.5 t-39 -21.5t-22.5 -4.5q-33 41 -65.5 57.5t-84.5 16.5q-61 0 -104 -44t-43 -113q0 -72 43 -116t106 -44q51 0 85 17.5t65 55.5q4 4 22.5 -3t40 -22t39 -39t17.5 -54q0 -29 -10.5 -50.5t-28.5 -41.5q-29 -29 -86.5 -55.5t-155.5 -26.5q-84 0 -154.5 27.5t-120.5 78.5t-79 121 t-29 152z" />
<glyph unicode="&#xaa;" horiz-adv-x="933" d="M33 745q0 63 22.5 111.5t82 82.5t160.5 51.5t257 19.5q-6 117 -127 116q-37 0 -62.5 -11t-44 -27.5t-30.5 -36t-21 -37.5q0 -2 -32.5 -3t-70.5 10t-71 37.5t-33 78.5q0 96 92.5 156.5t293.5 60.5q221 0 318 -86t97 -267v-456q0 -12 -36.5 -23.5t-84.5 -11.5 q-137 0 -172 133q-39 -66 -108.5 -101.5t-157.5 -35.5q-125 0 -198.5 66.5t-73.5 172.5zM287 131v31q0 150 151 149h41q80 0 117 -35.5t37 -113.5v-31q0 -150 -154 -149h-41q-152 0 -151 149zM330 776q0 -35 27.5 -54.5t70.5 -19.5q59 0 93 38t34 91v35q-121 -4 -173 -23.5 t-52 -66.5z" />
<glyph unicode="&#xab;" horiz-adv-x="1128" d="M51 506q0 8 16.5 38.5t44 69.5t64.5 82t78 80t83 60.5t81 23.5h4q66 0 97.5 -36t31.5 -93v-6q0 -33 -23.5 -64.5t-57.5 -61.5t-74 -53.5t-70 -39.5q31 -16 70.5 -41t73.5 -54.5t57.5 -61.5t23.5 -64v-6q0 -55 -32 -91t-97 -36h-4q-39 0 -81 23.5t-83 59t-78 78.5 t-64.5 83t-44 70t-16.5 40zM535 506q0 16 36.5 78.5t93 133t126 126t135.5 55.5h4q72 0 107.5 -40t35.5 -101v-8q0 -37 -26.5 -73t-64.5 -69t-82 -59.5t-79 -42.5q35 -18 79 -45t82 -59.5t64.5 -67.5t26.5 -72v-10q0 -59 -36 -99t-107 -40h-4q-43 0 -89 26.5t-90.5 66.5 t-82 88t-67.5 92t-46 77t-16 43z" />
<glyph unicode="&#xac;" horiz-adv-x="1492" d="M59 664q0 152 52.5 277.5t147.5 217.5t228.5 143.5t296.5 51.5q125 0 221.5 -23.5t162 -64.5t99 -97.5t33.5 -121.5q0 -53 -28.5 -91t-64.5 -62t-67.5 -32t-35.5 -2q-53 68 -130 106t-165 38q-70 0 -131.5 -24t-107.5 -70t-71.5 -113.5t-25.5 -153.5q0 -84 24.5 -149.5 t67.5 -109.5t102.5 -66.5t127.5 -22.5q100 0 159.5 43t75.5 115h-121q-96 0 -142 28.5t-46 114.5v16q0 88 46 115t142 27h404q43 0 67.5 -9.5t38 -29t18.5 -51t5 -74.5v-12q0 -131 -47 -243t-133 -193t-205 -126t-264 -45q-168 0 -304.5 51.5t-231.5 143.5t-146.5 219 t-51.5 279z" />
<glyph unicode="&#xad;" horiz-adv-x="960" d="M61 473v64q0 57 39 102t117 45h526q78 0 117 -45t39 -102v-64q0 -59 -39 -103t-117 -44h-526q-78 0 -117 44t-39 103z" />
<glyph unicode="&#xae;" horiz-adv-x="1513" d="M68 664q0 150 50 276.5t141 218.5t218 143.5t281 51.5t279.5 -51.5t217 -142.5t141.5 -218t50 -278q0 -150 -50 -277t-141.5 -219t-217 -144.5t-279.5 -52.5t-282 51.5t-218 143.5t-140 219t-50 279zM211 664q0 -121 40 -222.5t111.5 -175t172 -115.5t223.5 -42t223 40.5 t172 114.5t111 176.5t39 223.5t-40 222t-112 175t-173 115t-222 41q-123 0 -223.5 -41t-172 -115t-110.5 -175.5t-39 -221.5zM442 434v463q0 131 123 131h219q317 0 318 -242q0 -74 -36 -128t-103 -78l143 -209q4 -6 -6 -19.5t-30.5 -27t-47.5 -24.5t-55 -11q-35 0 -71 18.5 t-65 71.5l-94 147h-55v-120q0 -53 -26.5 -82t-77.5 -29h-35q-49 0 -75 37t-26 102zM678 692h90q94 0 94 78t-98 78h-86v-156z" />
<glyph unicode="&#xaf;" horiz-adv-x="1024" d="M113 1251v17q0 61 44 97t115 36h480q74 0 116.5 -36t42.5 -97v-17q0 -63 -42 -99t-117 -36h-480q-74 0 -116.5 36t-42.5 99z" />
<glyph unicode="&#xb0;" horiz-adv-x="768" d="M41 1010v14q0 76 25.5 135.5t71.5 101.5t109.5 64.5t139.5 22.5q152 0 246 -85t94 -239v-14q0 -152 -95 -238t-247 -86q-154 0 -249 85t-95 239zM272 1001q0 -66 33 -98.5t80 -32.5t80 32t33 97v33q0 66 -33 98.5t-80 32.5q-49 0 -81 -30.5t-32 -100.5v-31z" />
<glyph unicode="&#xb1;" horiz-adv-x="1009" d="M33 1047q0 51 15 87.5t33.5 60.5t36 33t21.5 7q33 -20 63.5 -30.5t67.5 -10.5q66 0 116 39t67 110h108q178 0 178 -190v-815h56q190 0 190 -170v-6q0 -86 -47 -124t-143 -38h-535q-94 0 -142 38t-48 124v6q0 170 190 170h102v543q-57 -39 -122 -39q-90 0 -148.5 57 t-58.5 148z" />
<glyph unicode="&#xb4;" horiz-adv-x="1024" d="M342 1161q-6 12 8.5 54t44 93.5t73.5 101.5t95 81q59 33 111 33q74 0 125 -43t51 -109q0 -53 -31 -106.5t-86 -83.5q-66 -37 -132 -49.5t-121.5 -10.5t-93.5 14.5t-44 24.5z" />
<glyph unicode="&#xb6;" horiz-adv-x="1282" d="M27 944q0 197 119.5 297t361.5 100h223q61 0 95 -32.5t34 -91.5v-1131q0 -104 -94 -104h-31q-47 0 -71.5 27.5t-24.5 76.5v471h-127q-236 0 -360.5 97.5t-124.5 289.5zM967 86v1155q0 102 94 102h33q96 0 96 -102v-1155q0 -104 -96 -104h-33q-94 0 -94 104z" />
<glyph unicode="&#xb7;" horiz-adv-x="536" d="M76 489v33q0 166 166 166h47q90 0 130 -40t40 -126v-33q0 -166 -170 -165h-47q-166 0 -166 165z" />
<glyph unicode="&#xb8;" horiz-adv-x="1024" d="M279 -393l71 196q8 27 19.5 48.5t31 35t49 20.5t76.5 7h43q74 0 115 -26.5t41 -82.5v-10q0 -35 -23.5 -63.5t-70.5 -63.5l-154 -121q-27 -18 -64.5 -21t-70.5 6t-52.5 28.5t-10.5 46.5z" />
<glyph unicode="&#xba;" horiz-adv-x="974" d="M43 926q0 90 33 169t92 136t141 90t180 33t180.5 -33t140.5 -90t90 -135t32 -168q0 -92 -33 -170t-92 -135.5t-141.5 -90t-180.5 -32.5q-100 0 -181 32.5t-139.5 89t-90 134.5t-31.5 170zM313 131v31q0 150 150 149h43q152 0 151 -149v-31q0 -150 -151 -149h-43 q-150 0 -150 149zM322 928q0 -74 46.5 -125t118.5 -51t120 51t48 125q0 76 -48 127t-120 51t-118.5 -51t-46.5 -127z" />
<glyph unicode="&#xbb;" horiz-adv-x="1128" d="M55 254v8q0 37 27 72t64.5 67.5t81.5 59t79 45.5q-35 16 -79 42.5t-81.5 59.5t-64.5 69t-27 73v8q0 63 36 102t108 39h4q66 0 134.5 -55.5t124.5 -126t93 -133t37 -78.5q0 -10 -16.5 -43t-46 -77t-67.5 -92t-82 -88t-89 -66.5t-88 -26.5h-4q-72 0 -108 40t-36 101z M578 279v8q0 33 23.5 64.5t57 60t72.5 53t70 41.5q-31 16 -70 39.5t-72.5 53.5t-57 61.5t-23.5 64.5v6q0 57 31.5 93t95.5 36h6q39 0 81 -23.5t82.5 -60.5t76.5 -80t63.5 -82t44 -68.5t16.5 -39.5q0 -14 -34.5 -70.5t-89 -120t-118 -113.5t-122.5 -50h-6q-63 0 -95 35.5 t-32 91.5z" />
<glyph unicode="&#xbf;" horiz-adv-x="1069" d="M33 362q0 84 26.5 140.5t66.5 94.5t87 63.5t90 49t74 51t39 70.5q10 39 50 54.5t107 15.5q74 0 120 -35t44 -104q0 -74 -25.5 -121t-62.5 -78t-80 -50t-79.5 -36.5t-61.5 -37t-25 -50.5q0 -47 37 -74.5t105 -27.5q53 0 95 17.5t70.5 47t46 66.5t23.5 76q0 2 41 2 t89 -15.5t89 -53.5t41 -116q0 -66 -32.5 -127t-97 -108t-157.5 -75t-214 -28q-240 0 -373 104.5t-133 284.5zM381 1143v35q0 166 172 165h45q168 0 168 -165v-35q0 -166 -168 -166h-45q-172 0 -172 166z" />
<glyph unicode="&#xc0;" horiz-adv-x="1409" d="M10 109l430 1112q8 25 23.5 46t45.5 36.5t77 23.5t116 8q70 0 116 -8t74 -23.5t42 -37t22 -45.5l447 -1108q6 -14 -10.5 -36t-47 -43.5t-72.5 -36.5t-89 -15q-66 0 -129.5 42t-106.5 152l-37 98h-426l-39 -102q-37 -106 -97 -148t-126 -42q-43 0 -83 14t-70.5 34.5 t-47 42t-12.5 36.5zM346 1689q0 66 51 109t127 43q53 0 109 -33q51 -31 95 -81t74.5 -101.5t45 -93t8.5 -54.5q-8 -12 -45 -24.5t-92.5 -14.5t-122.5 10.5t-133 49.5q-53 31 -85 84t-32 106zM553 569h285l-142 385z" />
<glyph unicode="&#xc1;" horiz-adv-x="1409" d="M10 109l430 1112q8 25 23.5 46t45.5 36.5t77 23.5t116 8q70 0 116 -8t74 -23.5t42 -37t22 -45.5l447 -1108q6 -14 -10.5 -36t-47 -43.5t-72.5 -36.5t-89 -15q-66 0 -129.5 42t-106.5 152l-37 98h-426l-39 -102q-37 -106 -97 -148t-126 -42q-43 0 -83 14t-70.5 34.5 t-47 42t-12.5 36.5zM545 1478q-6 12 8.5 54t44 93.5t73.5 101.5t95 81q59 33 111 33q74 0 125 -43t51 -109q0 -53 -31 -106.5t-86 -83.5q-66 -37 -132 -49.5t-121.5 -10.5t-93.5 14.5t-44 24.5zM553 569h285l-142 385z" />
<glyph unicode="&#xc2;" horiz-adv-x="1409" d="M10 109l430 1112q8 25 23.5 46t45.5 36.5t77 23.5t116 8q70 0 116 -8t74 -23.5t42 -37t22 -45.5l447 -1108q6 -14 -10.5 -36t-47 -43.5t-72.5 -36.5t-89 -15q-66 0 -129.5 42t-106.5 152l-37 98h-426l-39 -102q-37 -106 -97 -148t-126 -42q-43 0 -83 14t-70.5 34.5 t-47 42t-12.5 36.5zM365 1544q0 53 35 104t87 94t111.5 75t106.5 44q47 -12 106.5 -44t110.5 -75t86 -94t35 -104q0 -51 -34 -85t-91 -34q-63 0 -118.5 50t-94.5 140q-41 -90 -95.5 -140t-117.5 -50q-57 0 -92 34t-35 85zM553 569h285l-142 385z" />
<glyph unicode="&#xc3;" horiz-adv-x="1409" d="M10 109l430 1112q8 25 23.5 46t45.5 36.5t77 23.5t116 8q70 0 116 -8t74 -23.5t42 -37t22 -45.5l447 -1108q6 -14 -10.5 -36t-47 -43.5t-72.5 -36.5t-89 -15q-66 0 -129.5 42t-106.5 152l-37 98h-426l-39 -102q-37 -106 -97 -148t-126 -42q-43 0 -83 14t-70.5 34.5 t-47 42t-12.5 36.5zM336 1556q0 53 17.5 95t46 72t66.5 45t79 15q150 0 275 -125q18 51 52 86t81 35q57 0 92 -38t35 -91t-17.5 -95t-46 -71.5t-67.5 -45t-80 -15.5q-147 0 -275 127q-16 -53 -50 -88t-83 -35q-57 0 -91 38t-34 91zM553 569h285l-142 385z" />
<glyph unicode="&#xc4;" horiz-adv-x="1409" d="M10 109l430 1112q8 25 23.5 46t45.5 36.5t77 23.5t116 8q70 0 116 -8t74 -23.5t42 -37t22 -45.5l447 -1108q6 -14 -10.5 -36t-47 -43.5t-72.5 -36.5t-89 -15q-66 0 -129.5 42t-106.5 152l-37 98h-426l-39 -102q-37 -106 -97 -148t-126 -42q-43 0 -83 14t-70.5 34.5 t-47 42t-12.5 36.5zM293 1605q0 86 49.5 133t126.5 47q86 0 136.5 -47t50.5 -133t-49 -134t-131 -48q-84 0 -133.5 47t-49.5 135zM553 569h285l-142 385zM754 1605q0 86 49 133t131 47q84 0 133.5 -47t49.5 -133t-49 -134t-127 -48q-86 0 -136.5 47t-50.5 135z" />
<glyph unicode="&#xc5;" horiz-adv-x="1409" d="M10 109l430 1112q18 47 86 73q-90 63 -90 189q0 55 20.5 103t56.5 82t86 53.5t108 19.5q59 0 107 -19.5t84 -53.5t55.5 -82t19.5 -103q0 -61 -25.5 -110.5t-73.5 -82.5q29 -12 50.5 -29.5t31.5 -39.5l447 -1108q6 -14 -10.5 -36t-47 -43.5t-72.5 -36.5t-89 -15 q-66 0 -129.5 42t-106.5 152l-37 98h-426l-39 -102q-37 -106 -97 -148t-126 -42q-43 0 -83 14t-70.5 34.5t-47 42t-12.5 36.5zM553 569h285l-142 385zM610 1483q0 -41 27 -70t68 -29q39 0 66.5 29t27.5 70q0 43 -28 71.5t-66 28.5q-41 0 -68 -28.5t-27 -71.5z" />
<glyph unicode="&#xc6;" horiz-adv-x="1832" d="M10 109l420 1083q10 31 27.5 56.5t48.5 42t77 25.5t113 9h885q98 0 143 -46t45 -126v-12q0 -170 -188 -170h-539l52 -133h317q102 0 146.5 -41t44.5 -117v-8q0 -80 -45.5 -123t-145.5 -43h-180l61 -154h297q98 0 144.5 -41t46.5 -121v-10q0 -86 -46 -133t-145 -47h-364 q-53 0 -95.5 7t-76 26.5t-59 55.5t-48.5 93l-35 92h-426l-39 -102q-39 -109 -98 -149.5t-123 -40.5q-45 0 -86 14t-70.5 34.5t-46 42t-12.5 36.5zM553 569h285l-142 385z" />
<glyph unicode="&#xc7;" horiz-adv-x="1329" d="M59 664q0 152 50.5 277.5t142.5 217.5t220 143.5t284 51.5q141 0 239.5 -33t161 -82t91 -106.5t28.5 -104.5q0 -63 -36 -104t-80 -64.5t-81 -30t-41 -2.5q-37 72 -104.5 112t-155.5 40q-63 0 -117.5 -22.5t-94.5 -63.5t-62.5 -99.5t-22.5 -129.5q0 -72 22.5 -130.5 t62.5 -100.5t94.5 -64.5t117.5 -22.5q96 0 164 42t100 118q4 4 41 -2t82 -28.5t81 -63.5t36 -107q0 -49 -28.5 -106.5t-92 -108.5t-164 -85t-243.5 -34q-156 0 -284 51.5t-219 143.5t-141.5 219t-50.5 279zM485 -393l72 196q8 27 19.5 48.5t31 35t49 20.5t76.5 7h43 q74 0 115 -26.5t41 -82.5v-10q0 -35 -23.5 -63.5t-70.5 -63.5l-154 -121q-27 -18 -64.5 -21t-70.5 6t-52.5 28.5t-11.5 46.5z" />
<glyph unicode="&#xc8;" horiz-adv-x="1261" d="M92 225v871q0 113 54.5 171t156.5 58h705q98 0 144 -46t46 -126v-12q0 -86 -46 -128t-144 -42h-504v-133h336q102 0 146 -41t44 -117v-8q0 -80 -45 -123t-145 -43h-336v-154h514q188 0 188 -162v-10q0 -86 -45 -133t-143 -47h-715q-102 0 -156.5 56.5t-54.5 168.5z M348 1689q0 66 51 109t127 43q53 0 109 -33q51 -31 95 -81t74.5 -101.5t45 -93t8.5 -54.5q-8 -12 -45 -24.5t-92.5 -14.5t-122.5 10.5t-133 49.5q-53 31 -85 84t-32 106z" />
<glyph unicode="&#xc9;" horiz-adv-x="1261" d="M92 225v871q0 113 54.5 171t156.5 58h705q98 0 144 -46t46 -126v-12q0 -86 -46 -128t-144 -42h-504v-133h336q102 0 146 -41t44 -117v-8q0 -80 -45 -123t-145 -43h-336v-154h514q188 0 188 -162v-10q0 -86 -45 -133t-143 -47h-715q-102 0 -156.5 56.5t-54.5 168.5z M455 1478q-6 12 8.5 54t44 93.5t73.5 101.5t95 81q59 33 111 33q74 0 125 -43t51 -109q0 -53 -31 -106.5t-86 -83.5q-66 -37 -132 -49.5t-121.5 -10.5t-93.5 14.5t-44 24.5z" />
<glyph unicode="&#xca;" horiz-adv-x="1261" d="M92 225v871q0 113 54.5 171t156.5 58h705q98 0 144 -46t46 -126v-12q0 -86 -46 -128t-144 -42h-504v-133h336q102 0 146 -41t44 -117v-8q0 -80 -45 -123t-145 -43h-336v-154h514q188 0 188 -162v-10q0 -86 -45 -133t-143 -47h-715q-102 0 -156.5 56.5t-54.5 168.5z M319 1544q0 53 35 104t87 94t111.5 75t106.5 44q47 -12 106.5 -44t110.5 -75t86 -94t35 -104q0 -51 -34 -85t-91 -34q-63 0 -118.5 50t-94.5 140q-41 -90 -95.5 -140t-117.5 -50q-57 0 -92 34t-35 85z" />
<glyph unicode="&#xcb;" horiz-adv-x="1261" d="M92 225v871q0 113 54.5 171t156.5 58h705q98 0 144 -46t46 -126v-12q0 -86 -46 -128t-144 -42h-504v-133h336q102 0 146 -41t44 -117v-8q0 -80 -45 -123t-145 -43h-336v-154h514q188 0 188 -162v-10q0 -86 -45 -133t-143 -47h-715q-102 0 -156.5 56.5t-54.5 168.5z M247 1605q0 86 49.5 133t126.5 47q86 0 136.5 -47t50.5 -133t-49 -134t-131 -48q-84 0 -133.5 47t-49.5 135zM708 1605q0 86 49 133t131 47q84 0 133.5 -47t49.5 -133t-49 -134t-127 -48q-86 0 -136.5 47t-50.5 135z" />
<glyph unicode="&#xcc;" horiz-adv-x="626" d="M-12 1689q0 66 51 109t127 43q53 0 109 -33q51 -31 95 -81t74.5 -101.5t45 -93t8.5 -54.5q-8 -12 -45 -24.5t-92.5 -14.5t-122.5 10.5t-133 49.5q-53 31 -85 84t-32 106zM106 180v965q0 190 175 190h59q178 0 178 -190v-965q0 -190 -178 -190h-59q-174 0 -175 190z" />
<glyph unicode="&#xcd;" horiz-adv-x="626" d="M106 180v965q0 190 175 190h59q178 0 178 -190v-965q0 -190 -178 -190h-59q-174 0 -175 190zM119 1478q-6 12 8.5 54t44 93.5t73.5 101.5t95 81q59 33 111 33q74 0 125 -43t51 -109q0 -53 -31 -106.5t-86 -83.5q-66 -37 -132 -49.5t-121.5 -10.5t-93.5 14.5t-44 24.5z " />
<glyph unicode="&#xce;" horiz-adv-x="626" d="M-31 1544q0 53 35 104t87 94t111.5 75t106.5 44q47 -12 106.5 -44t110.5 -75t86 -94t35 -104q0 -51 -34 -85t-91 -34q-63 0 -118.5 50t-94.5 140q-41 -90 -95.5 -140t-117.5 -50q-57 0 -92 34t-35 85zM106 180v965q0 190 175 190h59q178 0 178 -190v-965 q0 -190 -178 -190h-59q-174 0 -175 190z" />
<glyph unicode="&#xcf;" horiz-adv-x="626" d="M-103 1605q0 86 49.5 133t126.5 47q86 0 136.5 -47t50.5 -133t-49 -134t-131 -48q-84 0 -133.5 47t-49.5 135zM106 180v965q0 190 175 190h59q178 0 178 -190v-965q0 -190 -178 -190h-59q-174 0 -175 190zM358 1605q0 86 49 133t131 47q84 0 133.5 -47t49.5 -133 t-49 -134t-127 -48q-86 0 -136.5 47t-50.5 135z" />
<glyph unicode="&#xd0;" horiz-adv-x="1497" d="M6 649v33q0 47 33 84t98 37h35v293q0 113 60.5 171t152.5 58h354q164 0 294 -46t222.5 -131t141.5 -206t49 -272q0 -154 -50 -277t-143.5 -211t-225.5 -135t-296 -47h-330q-47 0 -89 17.5t-72.5 48t-49 71.5t-18.5 88v301h-35q-66 0 -98.5 37t-32.5 86zM580 350h143 q145 0 232 83t87 235q0 147 -84 227t-229 80h-149v-172h135q66 0 97.5 -37t31.5 -84v-33q0 -49 -32 -86t-97 -37h-135v-176z" />
<glyph unicode="&#xd1;" horiz-adv-x="1439" d="M92 180v965q0 96 45 143t125 47h39q37 0 61.5 -5t45 -17.5t39 -30.5t38.5 -43l476 -618v524q0 190 178 190h35q172 0 172 -190v-965q0 -96 -44.5 -143t-121.5 -47h-33q-37 0 -62.5 5t-45 15t-37 27.5t-37.5 42.5l-486 629v-529q0 -190 -178 -190h-35q-174 0 -174 190z M348 1556q0 53 17.5 95t46 72t66.5 45t79 15q150 0 275 -125q18 51 52 86t81 35q57 0 92 -38t35 -91t-17.5 -95t-46 -71.5t-67.5 -45t-80 -15.5q-147 0 -275 127q-16 -53 -50 -88t-83 -35q-57 0 -91 38t-34 91z" />
<glyph unicode="&#xd2;" d="M51 664q0 152 52.5 277.5t145.5 217.5t221 143.5t282 51.5t281.5 -51.5t220 -143.5t144.5 -218t52 -277q0 -152 -52 -279t-144.5 -219t-221 -143.5t-282.5 -51.5t-282 51.5t-220 143.5t-144.5 219t-52.5 279zM401 1689q0 66 51 109t127 43q53 0 109 -33q51 -31 95 -81 t74.5 -101.5t45 -93t8.5 -54.5q-8 -12 -45 -24.5t-92.5 -14.5t-122.5 10.5t-133 49.5q-53 31 -85 84t-32 106zM457 664q0 -147 80 -236.5t215 -89.5q133 0 212.5 89t79.5 237q0 147 -79.5 237t-214.5 90t-214 -88t-79 -239z" />
<glyph unicode="&#xd3;" d="M51 664q0 152 52.5 277.5t145.5 217.5t221 143.5t282 51.5t281.5 -51.5t220 -143.5t144.5 -218t52 -277q0 -152 -52 -279t-144.5 -219t-221 -143.5t-282.5 -51.5t-282 51.5t-220 143.5t-144.5 219t-52.5 279zM457 664q0 -147 80 -236.5t215 -89.5q133 0 212.5 89 t79.5 237q0 147 -79.5 237t-214.5 90t-214 -88t-79 -239zM563 1478q-6 12 8.5 54t44 93.5t73.5 101.5t95 81q59 33 111 33q74 0 125 -43t51 -109q0 -53 -31 -106.5t-86 -83.5q-66 -37 -132 -49.5t-121.5 -10.5t-93.5 14.5t-44 24.5z" />
<glyph unicode="&#xd4;" d="M51 664q0 152 52.5 277.5t145.5 217.5t221 143.5t282 51.5t281.5 -51.5t220 -143.5t144.5 -218t52 -277q0 -152 -52 -279t-144.5 -219t-221 -143.5t-282.5 -51.5t-282 51.5t-220 143.5t-144.5 219t-52.5 279zM414 1544q0 53 35 104t87 94t111.5 75t106.5 44 q47 -12 106.5 -44t110.5 -75t86 -94t35 -104q0 -51 -34 -85t-91 -34q-63 0 -118.5 50t-94.5 140q-41 -90 -95.5 -140t-117.5 -50q-57 0 -92 34t-35 85zM457 664q0 -147 80 -236.5t215 -89.5q133 0 212.5 89t79.5 237q0 147 -79.5 237t-214.5 90t-214 -88t-79 -239z" />
<glyph unicode="&#xd5;" d="M51 664q0 152 52.5 277.5t145.5 217.5t221 143.5t282 51.5t281.5 -51.5t220 -143.5t144.5 -218t52 -277q0 -152 -52 -279t-144.5 -219t-221 -143.5t-282.5 -51.5t-282 51.5t-220 143.5t-144.5 219t-52.5 279zM383 1556q0 53 17.5 95t46 72t66.5 45t79 15q150 0 275 -125 q18 51 52 86t81 35q57 0 92 -38t35 -91t-17.5 -95t-46 -71.5t-67.5 -45t-80 -15.5q-147 0 -275 127q-16 -53 -50 -88t-83 -35q-57 0 -91 38t-34 91zM457 664q0 -147 80 -236.5t215 -89.5q133 0 212.5 89t79.5 237q0 147 -79.5 237t-214.5 90t-214 -88t-79 -239z" />
<glyph unicode="&#xd6;" d="M51 664q0 152 52.5 277.5t145.5 217.5t221 143.5t282 51.5t281.5 -51.5t220 -143.5t144.5 -218t52 -277q0 -152 -52 -279t-144.5 -219t-221 -143.5t-282.5 -51.5t-282 51.5t-220 143.5t-144.5 219t-52.5 279zM342 1605q0 86 49.5 133t126.5 47q86 0 136.5 -47t50.5 -133 t-49 -134t-131 -48q-84 0 -133.5 47t-49.5 135zM457 664q0 -147 80 -236.5t215 -89.5q133 0 212.5 89t79.5 237q0 147 -79.5 237t-214.5 90t-214 -88t-79 -239zM803 1605q0 86 49 133t131 47q84 0 133.5 -47t49.5 -133t-49 -134t-127 -48q-86 0 -136.5 47t-50.5 135z" />
<glyph unicode="&#xd7;" horiz-adv-x="1157" d="M110 204q-1 54 58 109l209 203l-209 201q-59 55 -57 109.5t41 95.5l20 24q41 43 96.5 42t110.5 -60l201 -211l198 211q55 59 110.5 60t96.5 -42l21 -24q39 -41 41 -95.5t-58 -109.5l-209 -201l209 -203q59 -55 58.5 -109t-41.5 -95l-25 -25q-37 -39 -92 -40t-111 58 l-198 211l-201 -211q-55 -59 -110.5 -58t-92.5 40l-24 25q-41 41 -42 95z" />
<glyph unicode="&#xd8;" d="M55 664q0 150 51.5 275.5t144.5 217.5t221 144.5t282 52.5q109 0 205 -27t176 -74l135 152q6 6 30.5 1t53 -20.5t51 -40t22.5 -59.5q0 -23 -10 -45t-35 -51l-77 -86q72 -88 109.5 -199.5t37.5 -240.5q0 -150 -51 -277t-144.5 -219t-221.5 -144.5t-281 -52.5 q-111 0 -206 27t-177 74q0 2 -21.5 -23.5t-50.5 -56.5l-74 -82q-6 -6 -31.5 -1t-54 20.5t-51 40t-22.5 59.5q0 41 49 96l88 96q-72 88 -110 199.5t-38 243.5zM430 664q0 -86 31 -158l428 477q-63 27 -135 27q-152 0 -238 -95.5t-86 -250.5zM618 346q63 -27 136 -27 q74 0 133 26t102 71t66.5 108.5t23.5 139.5q0 88 -30 157z" />
<glyph unicode="&#xd9;" horiz-adv-x="1390" d="M88 582v563q0 96 47 143t133 47h51q180 0 181 -190v-565q0 -246 196 -246q100 0 147.5 59.5t47.5 188.5v563q0 96 47 143t133 47h53q178 0 179 -190v-563q0 -301 -153 -451.5t-456 -150.5q-606 0 -606 602zM348 1685q0 66 51 109t127 43q53 0 109 -33q51 -31 95 -81 t74.5 -101.5t45 -93t8.5 -54.5q-8 -12 -45 -24.5t-92.5 -14.5t-122.5 10.5t-133 49.5q-53 31 -85 84t-32 106z" />
<glyph unicode="&#xda;" horiz-adv-x="1390" d="M88 582v563q0 96 47 143t133 47h51q180 0 181 -190v-565q0 -246 196 -246q100 0 147.5 59.5t47.5 188.5v563q0 96 47 143t133 47h53q178 0 179 -190v-563q0 -301 -153 -451.5t-456 -150.5q-606 0 -606 602zM535 1474q-6 12 8.5 54t44 93.5t73.5 101.5t95 81q59 33 111 33 q74 0 125 -43t51 -109q0 -53 -31 -106.5t-86 -83.5q-66 -37 -132 -49.5t-121.5 -10.5t-93.5 14.5t-44 24.5z" />
<glyph unicode="&#xdb;" horiz-adv-x="1390" d="M88 582v563q0 96 47 143t133 47h51q180 0 181 -190v-565q0 -246 196 -246q100 0 147.5 59.5t47.5 188.5v563q0 96 47 143t133 47h53q178 0 179 -190v-563q0 -301 -153 -451.5t-456 -150.5q-606 0 -606 602zM354 1544q0 53 35 104t87 94t111.5 75t106.5 44 q47 -12 106.5 -44t110.5 -75t86 -94t35 -104q0 -51 -34 -85t-91 -34q-63 0 -118.5 50t-94.5 140q-41 -90 -95.5 -140t-117.5 -50q-57 0 -92 34t-35 85z" />
<glyph unicode="&#xdc;" horiz-adv-x="1390" d="M88 582v563q0 96 47 143t133 47h51q180 0 181 -190v-565q0 -246 196 -246q100 0 147.5 59.5t47.5 188.5v563q0 96 47 143t133 47h53q178 0 179 -190v-563q0 -301 -153 -451.5t-456 -150.5q-606 0 -606 602zM282 1605q0 86 49.5 133t126.5 47q86 0 136.5 -47t50.5 -133 t-49 -134t-131 -48q-84 0 -133.5 47t-49.5 135zM743 1605q0 86 49 133t131 47q84 0 133.5 -47t49.5 -133t-49 -134t-127 -48q-86 0 -136.5 47t-50.5 135z" />
<glyph unicode="&#xdd;" horiz-adv-x="1308" d="M-8 1178q-4 8 7 32.5t44 51t86 48t131 21.5q53 0 102.5 -32.5t90.5 -108.5l204 -350l211 348q47 80 95.5 112.5t99.5 32.5q72 0 122 -21.5t80.5 -49t43 -53t8.5 -31.5l-455 -660v-338q0 -190 -178 -190h-59q-174 0 -174 190v340l-19 29q-20 29 -53 75t-74 105t-84 121z M489 1474q-6 12 8.5 54t44 93.5t73.5 101.5t95 81q59 33 111 33q74 0 125 -43t51 -109q0 -53 -31 -106.5t-86 -83.5q-66 -37 -132 -49.5t-121.5 -10.5t-93.5 14.5t-44 24.5z" />
<glyph unicode="&#xde;" horiz-adv-x="1275" d="M92 180v965q0 190 174 190h60q178 0 178 -190v-17h141q291 0 438.5 -117.5t147.5 -348.5q0 -457 -574 -457h-153v-25q0 -190 -178 -190h-60q-174 0 -174 190zM504 506h145q190 0 191 156q0 82 -46 119.5t-145 37.5h-145v-313z" />
<glyph unicode="&#xdf;" horiz-adv-x="1280" d="M90 172v743q0 283 134 409t431 126q248 0 383.5 -97.5t135.5 -262.5q0 -117 -51 -182.5t-160 -94.5q143 -57 218.5 -165.5t75.5 -250.5q0 -94 -29.5 -173t-82.5 -135t-127 -87t-164 -31q-156 0 -233.5 53.5t-77.5 149.5q0 31 12 57.5t26.5 47t28 33t15.5 10.5 q23 -20 51.5 -35t81.5 -15t92 35t39 88q0 66 -43 105t-135 69q-55 20 -96.5 57.5t-41.5 125.5q0 35 10.5 61.5t22.5 46.5q14 23 33 39q78 0 119 33t41 98q0 61 -41 97t-109 36q-166 0 -166 -211v-780q0 -92 -47 -141t-129 -49h-41q-82 0 -129 51t-47 139z" />
<glyph unicode="&#xe0;" horiz-adv-x="1175" d="M43 279q0 174 148.5 258t472.5 86h41q-12 133 -158 133q-47 0 -82 -12.5t-58.5 -32t-39 -43t-25.5 -45.5q0 -2 -41 -3.5t-90 11t-89 46.5t-40 99q0 121 117.5 190.5t369.5 69.5q274 0 399.5 -106.5t125.5 -325.5v-577q0 -16 -47.5 -30.5t-104.5 -14.5q-174 0 -221 165 q-49 -80 -138 -123.5t-202 -43.5q-76 0 -138.5 21.5t-107.5 61t-68.5 95t-23.5 121.5zM264 1372q0 66 51 109t127 43q53 0 109 -33q51 -31 95 -81t74.5 -101.5t45 -93t8.5 -54.5q-8 -12 -45 -24.5t-92.5 -14.5t-122.5 10.5t-133 49.5q-53 31 -85 84t-32 106zM416 313 q0 -45 33 -69.5t86 -24.5q78 0 125 48t47 126v35h-50q-119 -4 -180 -29.5t-61 -85.5z" />
<glyph unicode="&#xe1;" horiz-adv-x="1175" d="M43 279q0 174 148.5 258t472.5 86h41q-12 133 -158 133q-47 0 -82 -12.5t-58.5 -32t-39 -43t-25.5 -45.5q0 -2 -41 -3.5t-90 11t-89 46.5t-40 99q0 121 117.5 190.5t369.5 69.5q274 0 399.5 -106.5t125.5 -325.5v-577q0 -16 -47.5 -30.5t-104.5 -14.5q-174 0 -221 165 q-49 -80 -138 -123.5t-202 -43.5q-76 0 -138.5 21.5t-107.5 61t-68.5 95t-23.5 121.5zM405 1161q-6 12 8.5 54t44 93.5t73.5 101.5t95 81q59 33 111 33q74 0 125 -43t51 -109q0 -53 -31 -106.5t-86 -83.5q-66 -37 -132 -49.5t-121.5 -10.5t-93.5 14.5t-44 24.5zM416 313 q0 -45 33 -69.5t86 -24.5q78 0 125 48t47 126v35h-50q-119 -4 -180 -29.5t-61 -85.5z" />
<glyph unicode="&#xe2;" horiz-adv-x="1175" d="M43 279q0 174 148.5 258t472.5 86h41q-12 133 -158 133q-47 0 -82 -12.5t-58.5 -32t-39 -43t-25.5 -45.5q0 -2 -41 -3.5t-90 11t-89 46.5t-40 99q0 121 117.5 190.5t369.5 69.5q274 0 399.5 -106.5t125.5 -325.5v-577q0 -16 -47.5 -30.5t-104.5 -14.5q-174 0 -221 165 q-49 -80 -138 -123.5t-202 -43.5q-76 0 -138.5 21.5t-107.5 61t-68.5 95t-23.5 121.5zM250 1227q0 53 35 104t87 94t111.5 75t106.5 44q47 -12 106.5 -44t110.5 -75t86 -94t35 -104q0 -51 -34 -85t-91 -34q-63 0 -118.5 50t-94.5 140q-41 -90 -95.5 -140t-117.5 -50 q-57 0 -92 34t-35 85zM416 313q0 -45 33 -69.5t86 -24.5q78 0 125 48t47 126v35h-50q-119 -4 -180 -29.5t-61 -85.5z" />
<glyph unicode="&#xe3;" horiz-adv-x="1175" d="M43 279q0 174 148.5 258t472.5 86h41q-12 133 -158 133q-47 0 -82 -12.5t-58.5 -32t-39 -43t-25.5 -45.5q0 -2 -41 -3.5t-90 11t-89 46.5t-40 99q0 121 117.5 190.5t369.5 69.5q274 0 399.5 -106.5t125.5 -325.5v-577q0 -16 -47.5 -30.5t-104.5 -14.5q-174 0 -221 165 q-49 -80 -138 -123.5t-202 -43.5q-76 0 -138.5 21.5t-107.5 61t-68.5 95t-23.5 121.5zM205 1239q0 53 17.5 95t46 72t66.5 45t79 15q150 0 275 -125q18 51 52 86t81 35q57 0 92 -38t35 -91t-17.5 -95t-46 -71.5t-67.5 -45t-80 -15.5q-147 0 -275 127q-16 -53 -50 -88 t-83 -35q-57 0 -91 38t-34 91zM416 313q0 -45 33 -69.5t86 -24.5q78 0 125 48t47 126v35h-50q-119 -4 -180 -29.5t-61 -85.5z" />
<glyph unicode="&#xe4;" horiz-adv-x="1175" d="M43 279q0 174 148.5 258t472.5 86h41q-12 133 -158 133q-47 0 -82 -12.5t-58.5 -32t-39 -43t-25.5 -45.5q0 -2 -41 -3.5t-90 11t-89 46.5t-40 99q0 121 117.5 190.5t369.5 69.5q274 0 399.5 -106.5t125.5 -325.5v-577q0 -16 -47.5 -30.5t-104.5 -14.5q-174 0 -221 165 q-49 -80 -138 -123.5t-202 -43.5q-76 0 -138.5 21.5t-107.5 61t-68.5 95t-23.5 121.5zM163 1288q0 86 49.5 133t126.5 47q86 0 136.5 -47t50.5 -133t-49 -134t-131 -48q-84 0 -133.5 47t-49.5 135zM416 313q0 -45 33 -69.5t86 -24.5q78 0 125 48t47 126v35h-50 q-119 -4 -180 -29.5t-61 -85.5zM624 1288q0 86 49 133t131 47q84 0 133.5 -47t49.5 -133t-49 -134t-127 -48q-86 0 -136.5 47t-50.5 135z" />
<glyph unicode="&#xe5;" horiz-adv-x="1175" d="M43 279q0 174 148.5 258t472.5 86h41q-12 133 -158 133q-47 0 -82 -12.5t-58.5 -32t-39 -43t-25.5 -45.5q0 -2 -41 -3.5t-90 11t-89 46.5t-40 99q0 121 117.5 190.5t369.5 69.5q274 0 399.5 -106.5t125.5 -325.5v-577q0 -16 -47.5 -30.5t-104.5 -14.5q-174 0 -221 165 q-49 -80 -138 -123.5t-202 -43.5q-76 0 -138.5 21.5t-107.5 61t-68.5 95t-23.5 121.5zM307 1366q0 55 19.5 102.5t55 82t85 54t110.5 19.5q59 0 108.5 -19.5t84 -54t54 -82t19.5 -102.5q0 -113 -73.5 -186.5t-196.5 -73.5t-194.5 73.5t-71.5 186.5zM416 313q0 -45 33 -69.5 t86 -24.5q78 0 125 48t47 126v35h-50q-119 -4 -180 -29.5t-61 -85.5zM481 1366q0 -43 26.5 -70.5t67.5 -27.5t67.5 28.5t26.5 69.5t-26.5 69.5t-67.5 28.5t-67.5 -28.5t-26.5 -69.5z" />
<glyph unicode="&#xe6;" horiz-adv-x="1785" d="M43 279q0 174 148.5 258t472.5 86h20h21q-12 135 -158 135q-47 0 -82 -12.5t-58.5 -33t-39 -44t-25.5 -45.5q0 -2 -41 -3.5t-90 11t-89 46.5t-40 99q0 121 110.5 190.5t339.5 69.5q242 0 357 -114q127 115 330 114q117 0 213 -37.5t165.5 -105.5t108.5 -160t39 -203v-24 q-2 -45 -17.5 -74t-60.5 -29h-643q20 -80 81.5 -119.5t154.5 -39.5q92 0 154.5 37.5t90.5 91.5q0 2 29 -3t62.5 -21.5t62.5 -50.5t29 -89q0 -102 -115 -170t-330 -68q-166 0 -276.5 53.5t-169.5 157.5q-53 -90 -161 -146t-251 -56q-76 0 -139.5 21.5t-108.5 61t-69.5 95 t-24.5 121.5zM416 313q0 -45 33 -69.5t86 -24.5q78 0 125 48t47 126v35h-50q-119 -4 -180 -29.5t-61 -85.5zM1018 606h373q-2 78 -49.5 126t-129.5 48q-78 0 -131 -49t-63 -125z" />
<glyph unicode="&#xe7;" horiz-adv-x="1048" d="M45 506q0 115 40 212t111.5 167.5t171 109.5t218.5 39q121 0 203.5 -27.5t133 -69.5t73 -89t22.5 -84q0 -57 -32 -94t-70.5 -55.5t-71.5 -22.5t-35 2q-25 59 -71 97t-130 38q-92 0 -151.5 -63.5t-59.5 -159.5q0 -100 58.5 -165t152.5 -65q78 0 127 38t74 98q2 6 35 3 t71.5 -21.5t70.5 -55.5t32 -98q0 -37 -23.5 -84t-76 -88t-134 -69t-198.5 -28q-121 0 -221.5 39t-171 109.5t-109.5 169t-39 217.5zM330 -393l71 196q8 27 19.5 48.5t31 35t49 20.5t77.5 7h43q74 0 114.5 -26.5t40.5 -82.5v-10q0 -35 -23.5 -63.5t-70.5 -63.5l-154 -121 q-27 -18 -64.5 -21t-70.5 6t-52 28.5t-11 46.5z" />
<glyph unicode="&#xe8;" horiz-adv-x="1153" d="M45 496q0 117 40 216t111.5 170.5t171 112.5t218.5 41q117 0 214 -37.5t166.5 -105.5t108.5 -160t39 -203v-24q-2 -45 -18.5 -74t-61.5 -29h-641q18 -80 80 -119.5t156 -39.5q92 0 154.5 37.5t90.5 91.5q0 2 29 -3t62.5 -21.5t61.5 -50.5t28 -89q0 -102 -114 -170 t-331 -68q-131 0 -235.5 36t-178 103.5t-112.5 165t-39 220.5zM236 1372q0 66 51 109t127 43q53 0 109 -33q51 -31 95 -81t74.5 -101.5t45 -93t8.5 -54.5q-8 -12 -45 -24.5t-92.5 -14.5t-122.5 10.5t-133 49.5q-53 31 -85 84t-32 106zM387 606h373q-4 78 -50 126t-128 48 q-78 0 -131.5 -49t-63.5 -125z" />
<glyph unicode="&#xe9;" horiz-adv-x="1153" d="M45 496q0 117 40 216t111.5 170.5t171 112.5t218.5 41q117 0 214 -37.5t166.5 -105.5t108.5 -160t39 -203v-24q-2 -45 -18.5 -74t-61.5 -29h-641q18 -80 80 -119.5t156 -39.5q92 0 154.5 37.5t90.5 91.5q0 2 29 -3t62.5 -21.5t61.5 -50.5t28 -89q0 -102 -114 -170 t-331 -68q-131 0 -235.5 36t-178 103.5t-112.5 165t-39 220.5zM387 606h373q-4 78 -50 126t-128 48q-78 0 -131.5 -49t-63.5 -125zM399 1161q-6 12 8.5 54t44 93.5t73.5 101.5t95 81q59 33 111 33q74 0 125 -43t51 -109q0 -53 -31 -106.5t-86 -83.5q-66 -37 -132 -49.5 t-121.5 -10.5t-93.5 14.5t-44 24.5z" />
<glyph unicode="&#xea;" horiz-adv-x="1153" d="M45 496q0 117 40 216t111.5 170.5t171 112.5t218.5 41q117 0 214 -37.5t166.5 -105.5t108.5 -160t39 -203v-24q-2 -45 -18.5 -74t-61.5 -29h-641q18 -80 80 -119.5t156 -39.5q92 0 154.5 37.5t90.5 91.5q0 2 29 -3t62.5 -21.5t61.5 -50.5t28 -89q0 -102 -114 -170 t-331 -68q-131 0 -235.5 36t-178 103.5t-112.5 165t-39 220.5zM246 1227q0 53 35 104t87 94t111.5 75t106.5 44q47 -12 106.5 -44t110.5 -75t86 -94t35 -104q0 -51 -34 -85t-91 -34q-63 0 -118.5 50t-94.5 140q-41 -90 -95.5 -140t-117.5 -50q-57 0 -92 34t-35 85zM387 606 h373q-4 78 -50 126t-128 48q-78 0 -131.5 -49t-63.5 -125z" />
<glyph unicode="&#xeb;" horiz-adv-x="1153" d="M45 496q0 117 40 216t111.5 170.5t171 112.5t218.5 41q117 0 214 -37.5t166.5 -105.5t108.5 -160t39 -203v-24q-2 -45 -18.5 -74t-61.5 -29h-641q18 -80 80 -119.5t156 -39.5q92 0 154.5 37.5t90.5 91.5q0 2 29 -3t62.5 -21.5t61.5 -50.5t28 -89q0 -102 -114 -170 t-331 -68q-131 0 -235.5 36t-178 103.5t-112.5 165t-39 220.5zM174 1288q0 86 49.5 133t126.5 47q86 0 136.5 -47t50.5 -133t-49 -134t-131 -48q-84 0 -133.5 47t-49.5 135zM387 606h373q-4 78 -50 126t-128 48q-78 0 -131.5 -49t-63.5 -125zM635 1288q0 86 49 133t131 47 q84 0 133.5 -47t49.5 -133t-49 -134t-127 -48q-86 0 -136.5 47t-50.5 135z" />
<glyph unicode="&#xec;" horiz-adv-x="585" d="M-27 1372q0 66 51 109t127 43q53 0 109 -33q51 -31 95 -81t74.5 -101.5t45 -93t8.5 -54.5q-8 -12 -45 -24.5t-92.5 -14.5t-122.5 10.5t-133 49.5q-53 31 -85 84t-32 106zM96 180v656q0 109 50.5 149.5t125.5 40.5h41q80 0 128 -40t48 -150v-656q0 -106 -48 -148t-124 -42 h-41q-80 0 -130 41t-50 149z" />
<glyph unicode="&#xed;" horiz-adv-x="585" d="M96 180v656q0 109 50.5 149.5t125.5 40.5h41q80 0 128 -40t48 -150v-656q0 -106 -48 -148t-124 -42h-41q-80 0 -130 41t-50 149zM104 1161q-6 12 8.5 54t44 93.5t73.5 101.5t95 81q59 33 111 33q74 0 125 -43t51 -109q0 -53 -31 -106.5t-86 -83.5q-66 -37 -132 -49.5 t-121.5 -10.5t-93.5 14.5t-44 24.5z" />
<glyph unicode="&#xee;" horiz-adv-x="585" d="M-45 1227q0 53 35 104t87 94t111.5 75t106.5 44q47 -12 106.5 -44t110.5 -75t86 -94t35 -104q0 -51 -34 -85t-91 -34q-63 0 -118.5 50t-94.5 140q-41 -90 -95.5 -140t-117.5 -50q-57 0 -92 34t-35 85zM96 180v656q0 109 50.5 149.5t125.5 40.5h41q80 0 128 -40t48 -150 v-656q0 -106 -48 -148t-124 -42h-41q-80 0 -130 41t-50 149z" />
<glyph unicode="&#xef;" horiz-adv-x="585" d="M-117 1288q0 86 49.5 133t126.5 47q86 0 136.5 -47t50.5 -133t-49 -134t-131 -48q-84 0 -133.5 47t-49.5 135zM96 180v656q0 109 50.5 149.5t125.5 40.5h41q80 0 128 -40t48 -150v-656q0 -106 -48 -148t-124 -42h-41q-80 0 -130 41t-50 149zM344 1288q0 86 49 133t131 47 q84 0 133.5 -47t49.5 -133t-49 -134t-127 -48q-86 0 -136.5 47t-50.5 135z" />
<glyph unicode="&#xf0;" horiz-adv-x="1273" d="M47 479q0 106 35 196.5t98.5 155t150.5 100.5t193 36t183 -44t120 -108q-27 86 -78 163t-128 142l-168 -86q-63 -31 -112.5 -16.5t-68.5 67.5l-4 11q-18 53 -3.5 95t79.5 75h2q-74 27 -151 43q-8 2 0 33.5t39.5 68.5t91 67.5t155.5 30.5q131 0 250 -53l203 100 q63 31 104 10.5t72 -61.5l8 -10q33 -41 11.5 -89t-87.5 -81l-75 -37q119 -123 189.5 -294t70.5 -363q0 -152 -44 -273.5t-125 -208t-193.5 -132.5t-248.5 -46q-129 0 -233 34t-179 98.5t-116 159.5t-41 216zM420 487q0 -92 55 -153.5t146 -61.5q94 0 149 57.5t55 153.5v105 q-27 47 -79 80.5t-117 33.5q-96 0 -152.5 -61t-56.5 -154z" />
<glyph unicode="&#xf1;" horiz-adv-x="1241" d="M90 180v801q0 10 46 27.5t106 17.5q35 0 68.5 -8t64.5 -28.5t54.5 -54.5t37.5 -85q53 82 132 134t202 52q98 0 166.5 -32.5t111.5 -88t62.5 -128t19.5 -152.5v-455q0 -106 -48 -148t-126 -42h-39q-80 0 -130 41t-50 149v387q0 70 -35 110t-96 40q-53 0 -92 -23.5 t-62 -58.5v-455q0 -109 -49 -149.5t-125 -40.5h-41q-78 0 -128 41t-50 149zM262 1239q0 53 17.5 95t46 72t66.5 45t79 15q150 0 275 -125q18 51 52 86t81 35q57 0 92 -38t35 -91t-17.5 -95t-46 -71.5t-67.5 -45t-80 -15.5q-147 0 -275 127q-16 -53 -50 -88t-83 -35 q-57 0 -91 38t-34 91z" />
<glyph unicode="&#xf2;" horiz-adv-x="1200" d="M45 506q0 119 40 217t113.5 168t177 107.5t228.5 37.5t226.5 -37.5t174 -108.5t111.5 -168t39 -218t-40 -219.5t-112.5 -168t-175 -107.5t-229.5 -38t-229.5 38t-174 107.5t-110.5 168t-39 221.5zM250 1372q0 66 51 109t127 43q53 0 109 -33q51 -31 95 -81t74.5 -101.5 t45 -93t8.5 -54.5q-8 -12 -45 -24.5t-92.5 -14.5t-122.5 10.5t-133 49.5q-53 31 -85 84t-32 106zM379 506q0 -104 61.5 -169t159.5 -65q96 0 158.5 65.5t62.5 166.5q0 104 -61.5 168.5t-159.5 64.5t-159.5 -64.5t-61.5 -166.5z" />
<glyph unicode="&#xf3;" horiz-adv-x="1200" d="M45 506q0 119 40 217t113.5 168t177 107.5t228.5 37.5t226.5 -37.5t174 -108.5t111.5 -168t39 -218t-40 -219.5t-112.5 -168t-175 -107.5t-229.5 -38t-229.5 38t-174 107.5t-110.5 168t-39 221.5zM379 506q0 -104 61.5 -169t159.5 -65q96 0 158.5 65.5t62.5 166.5 q0 104 -61.5 168.5t-159.5 64.5t-159.5 -64.5t-61.5 -166.5zM442 1161q-6 12 8.5 54t44 93.5t73.5 101.5t95 81q59 33 111 33q74 0 125 -43t51 -109q0 -53 -31 -106.5t-86 -83.5q-66 -37 -132 -49.5t-121.5 -10.5t-93.5 14.5t-44 24.5z" />
<glyph unicode="&#xf4;" horiz-adv-x="1200" d="M45 506q0 119 40 217t113.5 168t177 107.5t228.5 37.5t226.5 -37.5t174 -108.5t111.5 -168t39 -218t-40 -219.5t-112.5 -168t-175 -107.5t-229.5 -38t-229.5 38t-174 107.5t-110.5 168t-39 221.5zM262 1227q0 53 35 104t87 94t111.5 75t106.5 44q47 -12 106.5 -44 t110.5 -75t86 -94t35 -104q0 -51 -34 -85t-91 -34q-63 0 -118.5 50t-94.5 140q-41 -90 -95.5 -140t-117.5 -50q-57 0 -92 34t-35 85zM379 506q0 -104 61.5 -169t159.5 -65q96 0 158.5 65.5t62.5 166.5q0 104 -61.5 168.5t-159.5 64.5t-159.5 -64.5t-61.5 -166.5z" />
<glyph unicode="&#xf5;" horiz-adv-x="1200" d="M45 506q0 119 40 217t113.5 168t177 107.5t228.5 37.5t226.5 -37.5t174 -108.5t111.5 -168t39 -218t-40 -219.5t-112.5 -168t-175 -107.5t-229.5 -38t-229.5 38t-174 107.5t-110.5 168t-39 221.5zM231 1239q0 53 17.5 95t46 72t66.5 45t79 15q150 0 275 -125q18 51 52 86 t81 35q57 0 92 -38t35 -91t-17.5 -95t-46 -71.5t-67.5 -45t-80 -15.5q-147 0 -275 127q-16 -53 -50 -88t-83 -35q-57 0 -91 38t-34 91zM379 506q0 -104 61.5 -169t159.5 -65q96 0 158.5 65.5t62.5 166.5q0 104 -61.5 168.5t-159.5 64.5t-159.5 -64.5t-61.5 -166.5z" />
<glyph unicode="&#xf6;" horiz-adv-x="1200" d="M45 506q0 119 40 217t113.5 168t177 107.5t228.5 37.5t226.5 -37.5t174 -108.5t111.5 -168t39 -218t-40 -219.5t-112.5 -168t-175 -107.5t-229.5 -38t-229.5 38t-174 107.5t-110.5 168t-39 221.5zM190 1288q0 86 49.5 133t126.5 47q86 0 136.5 -47t50.5 -133t-49 -134 t-131 -48q-84 0 -133.5 47t-49.5 135zM379 506q0 -104 61.5 -169t159.5 -65q96 0 158.5 65.5t62.5 166.5q0 104 -61.5 168.5t-159.5 64.5t-159.5 -64.5t-61.5 -166.5zM651 1288q0 86 49 133t131 47q84 0 133.5 -47t49.5 -133t-49 -134t-127 -48q-86 0 -136.5 47t-50.5 135z " />
<glyph unicode="&#xf8;" horiz-adv-x="1200" d="M10 -33q0 20 10.5 43t36.5 51l101 111q-53 68 -81 151t-28 181q0 113 41 210t115 168.5t176 112.5t225 41q78 0 145.5 -17.5t127.5 -47.5l174 192q6 6 30.5 1t52 -19.5t50 -38t22.5 -55.5q0 -23 -10 -45.5t-35 -51.5l-112 -127q104 -135 104 -321q0 -115 -41 -212 t-114.5 -169t-176 -113t-225.5 -41q-152 0 -266 62l-164 -183q-6 -6 -30.5 -0.5t-53.5 20.5t-51.5 39.5t-22.5 57.5zM369 504q-1 -58 22 -109l13 15q14 14 35.5 36.5t48 53t55.5 61.5q68 74 151 166q-23 10 -45 17.5t-47 7.5q-104 0 -168.5 -70t-64.5 -178zM516 283 q39 -23 86 -23q51 0 94 18.5t74 51t48.5 78t17.5 96.5q0 59 -25 104l-13 -13q-12 -13 -32.5 -36.5t-47 -52.5t-54.5 -60z" />
<glyph unicode="&#xf9;" horiz-adv-x="1241" d="M80 373v463q0 109 48 149.5t126 40.5h39q80 0 130 -40t50 -150v-394q0 -70 35 -109.5t98 -39.5q49 0 89 22.5t63 57.5v463q0 109 48 149.5t126 40.5h41q78 0 128 -40t50 -150v-801q0 -4 -12.5 -12.5t-34 -15.5t-48 -12t-57.5 -5q-33 0 -66.5 8t-64 27.5t-55.5 52.5 t-39 84q-53 -82 -132 -136.5t-202 -54.5q-98 0 -166.5 34t-111.5 89.5t-62.5 128t-19.5 150.5zM268 1372q0 66 51 109t127 43q53 0 109 -33q51 -31 95 -81t74.5 -101.5t45 -93t8.5 -54.5q-8 -12 -45 -24.5t-92.5 -14.5t-122.5 10.5t-133 49.5q-53 31 -85 84t-32 106z" />
<glyph unicode="&#xfa;" horiz-adv-x="1241" d="M80 373v463q0 109 48 149.5t126 40.5h39q80 0 130 -40t50 -150v-394q0 -70 35 -109.5t98 -39.5q49 0 89 22.5t63 57.5v463q0 109 48 149.5t126 40.5h41q78 0 128 -40t50 -150v-801q0 -4 -12.5 -12.5t-34 -15.5t-48 -12t-57.5 -5q-33 0 -66.5 8t-64 27.5t-55.5 52.5 t-39 84q-53 -82 -132 -136.5t-202 -54.5q-98 0 -166.5 34t-111.5 89.5t-62.5 128t-19.5 150.5zM465 1161q-6 12 8.5 54t44 93.5t73.5 101.5t95 81q59 33 111 33q74 0 125 -43t51 -109q0 -53 -31 -106.5t-86 -83.5q-66 -37 -132 -49.5t-121.5 -10.5t-93.5 14.5t-44 24.5z" />
<glyph unicode="&#xfb;" horiz-adv-x="1241" d="M80 373v463q0 109 48 149.5t126 40.5h39q80 0 130 -40t50 -150v-394q0 -70 35 -109.5t98 -39.5q49 0 89 22.5t63 57.5v463q0 109 48 149.5t126 40.5h41q78 0 128 -40t50 -150v-801q0 -4 -12.5 -12.5t-34 -15.5t-48 -12t-57.5 -5q-33 0 -66.5 8t-64 27.5t-55.5 52.5 t-39 84q-53 -82 -132 -136.5t-202 -54.5q-98 0 -166.5 34t-111.5 89.5t-62.5 128t-19.5 150.5zM281 1227q0 53 35 104t87 94t111.5 75t106.5 44q47 -12 106.5 -44t110.5 -75t86 -94t35 -104q0 -51 -34 -85t-91 -34q-63 0 -118.5 50t-94.5 140q-41 -90 -95.5 -140t-117.5 -50 q-57 0 -92 34t-35 85z" />
<glyph unicode="&#xfc;" horiz-adv-x="1241" d="M80 373v463q0 109 48 149.5t126 40.5h39q80 0 130 -40t50 -150v-394q0 -70 35 -109.5t98 -39.5q49 0 89 22.5t63 57.5v463q0 109 48 149.5t126 40.5h41q78 0 128 -40t50 -150v-801q0 -4 -12.5 -12.5t-34 -15.5t-48 -12t-57.5 -5q-33 0 -66.5 8t-64 27.5t-55.5 52.5 t-39 84q-53 -82 -132 -136.5t-202 -54.5q-98 0 -166.5 34t-111.5 89.5t-62.5 128t-19.5 150.5zM211 1288q0 86 49.5 133t126.5 47q86 0 136.5 -47t50.5 -133t-49 -134t-131 -48q-84 0 -133.5 47t-49.5 135zM672 1288q0 86 49 133t131 47q84 0 133.5 -47t49.5 -133t-49 -134 t-127 -48q-86 0 -136.5 47t-50.5 135z" />
<glyph unicode="&#xfd;" horiz-adv-x="1167" d="M14 915q-2 8 15.5 27t49.5 38t73 34.5t84 15.5q61 0 117.5 -38t86.5 -142l154 -442l143 442q31 102 87.5 141t113.5 39q43 0 83 -14.5t70.5 -33.5t48 -38.5t13.5 -28.5l-446 -1126q-39 -98 -92.5 -136t-116.5 -38q-43 0 -83 14.5t-70 33t-46 35.5t-12 26l166 350 q-35 8 -60.5 25.5t-40.5 47.5zM430 1159q-6 12 8.5 54t44 93.5t73.5 101.5t95 81q59 33 111 33q74 0 125 -43t51 -109q0 -53 -31 -106.5t-86 -83.5q-66 -37 -132 -49.5t-121.5 -10.5t-93.5 14.5t-44 24.5z" />
<glyph unicode="&#xfe;" horiz-adv-x="1294" d="M90 -207v1604q0 10 46 27.5t106 17.5q43 0 86 -13.5t77.5 -47t56 -91t21.5 -147.5v-262q55 72 131 113.5t166 41.5q104 0 189.5 -37.5t147 -107.5t94 -168t32.5 -221t-32.5 -220.5t-93 -167t-146.5 -106.5t-193 -37q-92 0 -169 37t-126 96v-311q0 -106 -49 -147t-125 -41 h-41q-78 0 -128 40t-50 148zM483 426q10 -72 61.5 -111t125.5 -39q92 0 146 61.5t54 166.5q0 104 -53 165.5t-145 61.5q-66 0 -114 -30.5t-75 -84.5v-190z" />
<glyph unicode="&#xff;" horiz-adv-x="1167" d="M14 915q-2 8 15.5 27t49.5 38t73 34.5t84 15.5q61 0 117.5 -38t86.5 -142l154 -442l143 442q31 102 87.5 141t113.5 39q43 0 83 -14.5t70.5 -33.5t48 -38.5t13.5 -28.5l-446 -1126q-39 -98 -92.5 -136t-116.5 -38q-43 0 -83 14.5t-70 33t-46 35.5t-12 26l166 350 q-35 8 -60.5 25.5t-40.5 47.5zM180 1288q0 86 49.5 133t126.5 47q86 0 136.5 -47t50.5 -133t-49 -134t-131 -48q-84 0 -133.5 47t-49.5 135zM641 1288q0 86 49 133t131 47q84 0 133.5 -47t49.5 -133t-49 -134t-127 -48q-86 0 -136.5 47t-50.5 135z" />
<glyph unicode="&#x152;" horiz-adv-x="2107" d="M51 664q0 152 52.5 277.5t145.5 217.5t221 143.5t282 51.5q57 0 110 -6.5t105 -22.5h888q98 0 144.5 -46t46.5 -126v-12q0 -170 -191 -170h-489q25 -25 41 -58.5t20 -74.5h261q100 0 144 -41t44 -117v-8q0 -80 -44 -123t-144 -43h-258q-4 -47 -20.5 -86t-45.5 -68h500 q98 0 144 -41t46 -121v-10q0 -86 -46 -133t-144 -47h-897q-51 -16 -104.5 -22.5t-112.5 -6.5q-154 0 -282 51.5t-220 143.5t-144.5 219t-52.5 279zM457 664q0 -147 80 -236.5t215 -89.5q133 0 212.5 89t79.5 237q0 147 -79.5 237t-214.5 90t-214 -88t-79 -239z" />
<glyph unicode="&#x153;" horiz-adv-x="1929" d="M45 506q0 119 40 217t113.5 168t177 107.5t228.5 37.5q119 0 214 -41t161 -116q139 158 383 157q117 0 213 -37.5t166.5 -105.5t109.5 -160t39 -203v-24q-2 -45 -18.5 -74t-61.5 -29h-641q18 -80 80 -119.5t154 -39.5t155.5 37.5t92.5 91.5q0 2 28.5 -3t62.5 -21.5 t61.5 -50.5t27.5 -89q0 -102 -113.5 -170t-331.5 -68q-278 0 -413 152q-66 -72 -161 -112t-214 -40q-127 0 -229.5 38t-174 107.5t-110.5 168t-39 221.5zM379 506q0 -104 61.5 -169t159.5 -65q96 0 158.5 65.5t62.5 166.5q0 104 -61.5 168.5t-159.5 64.5t-159.5 -64.5 t-61.5 -166.5zM1163 606h373q-4 78 -50 126t-128 48q-78 0 -131 -49t-64 -125z" />
<glyph unicode="&#x178;" horiz-adv-x="1308" d="M-8 1178q-4 8 7 32.5t44 51t86 48t131 21.5q53 0 102.5 -32.5t90.5 -108.5l204 -350l211 348q47 80 95.5 112.5t99.5 32.5q72 0 122 -21.5t80.5 -49t43 -53t8.5 -31.5l-455 -660v-338q0 -190 -178 -190h-59q-174 0 -174 190v340l-19 29q-20 29 -53 75t-74 105t-84 121z M241 1605q0 86 49.5 133t126.5 47q86 0 136.5 -47t50.5 -133t-49 -134t-131 -48q-84 0 -133.5 47t-49.5 135zM702 1605q0 86 49 133t131 47q84 0 133.5 -47t49.5 -133t-49 -134t-127 -48q-86 0 -136.5 47t-50.5 135z" />
<glyph unicode="&#x2c6;" horiz-adv-x="1024" d="M172 1227q0 53 35 104t87 94t111.5 75t106.5 44q47 -12 106.5 -44t110.5 -75t86 -94t35 -104q0 -51 -34 -85t-91 -34q-63 0 -118.5 50t-94.5 140q-41 -90 -95.5 -140t-117.5 -50q-57 0 -92 34t-35 85z" />
<glyph unicode="&#x2dc;" horiz-adv-x="1021" d="M139 1239q0 53 17.5 95t46 72t66.5 45t79 15q150 0 275 -125q18 51 52 86t81 35q57 0 92 -38t35 -91t-17.5 -95t-46 -71.5t-67.5 -45t-80 -15.5q-147 0 -275 127q-16 -53 -50 -88t-83 -35q-57 0 -91 38t-34 91z" />
<glyph unicode="&#x2000;" horiz-adv-x="930" />
<glyph unicode="&#x2001;" horiz-adv-x="1861" />
<glyph unicode="&#x2002;" horiz-adv-x="930" />
<glyph unicode="&#x2003;" horiz-adv-x="1861" />
<glyph unicode="&#x2004;" horiz-adv-x="620" />
<glyph unicode="&#x2005;" horiz-adv-x="465" />
<glyph unicode="&#x2006;" horiz-adv-x="310" />
<glyph unicode="&#x2007;" horiz-adv-x="310" />
<glyph unicode="&#x2008;" horiz-adv-x="232" />
<glyph unicode="&#x2009;" horiz-adv-x="372" />
<glyph unicode="&#x200a;" horiz-adv-x="103" />
<glyph unicode="&#x2010;" horiz-adv-x="960" d="M61 473v64q0 57 39 102t117 45h526q78 0 117 -45t39 -102v-64q0 -59 -39 -103t-117 -44h-526q-78 0 -117 44t-39 103z" />
<glyph unicode="&#x2011;" horiz-adv-x="960" d="M61 473v64q0 57 39 102t117 45h526q78 0 117 -45t39 -102v-64q0 -59 -39 -103t-117 -44h-526q-78 0 -117 44t-39 103z" />
<glyph unicode="&#x2012;" horiz-adv-x="960" d="M61 473v64q0 57 39 102t117 45h526q78 0 117 -45t39 -102v-64q0 -59 -39 -103t-117 -44h-526q-78 0 -117 44t-39 103z" />
<glyph unicode="&#x2013;" horiz-adv-x="1179" d="M61 489v33q0 55 39 101.5t117 46.5h731q78 0 117 -46t39 -102v-33q0 -59 -39 -104t-117 -45h-731q-78 0 -117 45t-39 104z" />
<glyph unicode="&#x2014;" horiz-adv-x="1511" d="M61 489v33q0 55 39 101.5t117 46.5h1077q80 0 118 -46t38 -102v-33q0 -59 -38 -104t-118 -45h-1077q-78 0 -117 45t-39 104z" />
<glyph unicode="&#x2018;" horiz-adv-x="524" d="M43 924v16q0 51 20.5 95t67.5 95l154 183q29 29 66.5 33t70.5 -9.5t53.5 -43t11.5 -70.5l-73 -299q-8 -41 -19.5 -71t-30 -50.5t-48 -29.5t-76.5 -9h-45q-72 0 -112 38t-40 122z" />
<glyph unicode="&#x2019;" horiz-adv-x="524" d="M39 887l72 299q8 41 19 71.5t30.5 50t49.5 30t77 10.5h43q72 0 111.5 -38t39.5 -124v-15q0 -100 -88 -190l-155 -182q-27 -27 -65 -32t-70.5 8t-52 42t-11.5 70z" />
<glyph unicode="&#x201a;" horiz-adv-x="524" d="M35 -109l71 299q8 41 19.5 72t31 50.5t49.5 29.5t77 10h43q72 0 111.5 -38t39.5 -124v-14q0 -100 -88 -190l-156 -183q-27 -29 -64.5 -32.5t-70 9.5t-52 41.5t-11.5 69.5z" />
<glyph unicode="&#x201c;" horiz-adv-x="1001" d="M43 924v16q0 53 21.5 98t66.5 92l154 183q29 29 66.5 33t70.5 -9.5t53.5 -43t11.5 -70.5l-73 -299q-8 -41 -19.5 -71t-30 -50.5t-48 -29.5t-76.5 -9h-45q-72 0 -112 38t-40 122zM520 924v16q0 100 88 190l156 183q27 29 64.5 33t69.5 -9.5t52.5 -43t12.5 -70.5l-72 -299 q-8 -41 -19.5 -71t-31 -50.5t-49 -29.5t-76.5 -9h-43q-72 0 -112 38t-40 122z" />
<glyph unicode="&#x201d;" horiz-adv-x="1001" d="M39 887l70 299q10 41 21 71.5t30.5 50t49.5 30t77 10.5h43q72 0 111.5 -38t39.5 -124v-15q0 -100 -88 -190l-155 -182q-27 -27 -65 -32t-70.5 8t-52 42t-11.5 70zM514 887l74 299q10 41 20 71.5t28.5 50t48.5 30t77 10.5h45q72 0 111.5 -38t39.5 -124v-15 q0 -53 -22.5 -98t-65.5 -92l-155 -182q-27 -29 -65 -34t-71.5 8t-53 43t-11.5 71z" />
<glyph unicode="&#x201e;" horiz-adv-x="1001" d="M35 -109l69 299q10 41 21.5 72t31 50.5t49.5 29.5t77 10h43q72 0 111.5 -38t39.5 -124v-14q0 -100 -88 -190l-156 -183q-27 -29 -64.5 -32.5t-70 9.5t-52 41.5t-11.5 69.5zM510 -109l74 299q10 41 20 72t28.5 50.5t48.5 29.5t77 10h45q72 0 111.5 -38t39.5 -124v-14 q0 -53 -22.5 -98t-65.5 -92l-155 -183q-27 -29 -65 -34t-71.5 8.5t-53 43t-11.5 70.5z" />
<glyph unicode="&#x2022;" horiz-adv-x="743" d="M74 506q0 66 22.5 121t62.5 96t95 64.5t119 23.5q63 0 117.5 -23.5t94.5 -64.5t62.5 -96.5t22.5 -120.5q0 -61 -23.5 -116.5t-63.5 -95.5t-94.5 -63.5t-115.5 -23.5q-63 0 -118.5 22.5t-95.5 62.5t-62.5 95t-22.5 119z" />
<glyph unicode="&#x2026;" horiz-adv-x="1589" d="M72 150v32q0 166 166 166h47q90 0 130 -40t40 -126v-32q0 -166 -170 -166h-47q-166 0 -166 166zM600 150v32q0 166 168 166h47q170 0 170 -166v-32q0 -166 -170 -166h-47q-168 0 -168 166zM1130 150v32q0 166 166 166h47q90 0 130 -40t40 -126v-32q0 -166 -170 -166h-47 q-166 0 -166 166z" />
<glyph unicode="&#x202f;" horiz-adv-x="372" />
<glyph unicode="&#x2039;" horiz-adv-x="661" d="M51 506q0 10 18.5 43t49.5 77t70.5 92t84.5 88t92.5 66.5t90.5 26.5h6q72 0 107.5 -40t35.5 -101v-8q0 -37 -26.5 -73t-65.5 -69t-82 -59.5t-78 -42.5q35 -18 78 -45t82 -59.5t65.5 -67.5t26.5 -72v-10q0 -59 -35.5 -99t-107.5 -40h-6q-43 0 -90.5 26.5t-92.5 66.5 t-84.5 88t-70.5 92t-49.5 77t-18.5 43z" />
<glyph unicode="&#x203a;" horiz-adv-x="661" d="M55 252v10q0 37 27 72t64.5 67.5t81.5 59.5t79 45q-35 16 -79 42.5t-81.5 59.5t-64.5 69t-27 73v8q0 61 36 101t108 40h4q66 0 136.5 -55.5t130.5 -126t99 -133t39 -78.5q0 -10 -18.5 -43t-49 -77t-70.5 -92t-85 -88t-92 -66.5t-90 -26.5h-4q-72 0 -108 40t-36 99z" />
<glyph unicode="&#x205f;" horiz-adv-x="465" />
<glyph unicode="&#x20ac;" horiz-adv-x="1298" d="M31 506v29q0 39 31.5 67.5t97.5 28.5h33v61h-33q-66 0 -97.5 29t-31.5 70v28q0 37 31.5 66.5t97.5 29.5h53q49 209 204.5 324t385.5 115q217 0 338 -78t121 -201q0 -49 -27 -86t-60.5 -60.5t-63.5 -33.5t-34 -6q-55 66 -112.5 98.5t-153.5 32.5q-68 0 -120 -25.5 t-83 -79.5h242q68 0 98.5 -29.5t30.5 -66.5v-28q0 -41 -30.5 -70t-98.5 -29h-277v-61h277q68 0 98.5 -29t30.5 -67v-29q0 -39 -30.5 -68.5t-98.5 -29.5h-240q31 -53 83 -79t120 -26q98 0 155.5 35t110.5 102q4 4 34 -6t63.5 -33.5t60.5 -61.5t27 -87t-26 -98.5t-80 -90 t-141 -66.5t-210 -26q-231 0 -388 113t-206 324h-53q-66 0 -97.5 29.5t-31.5 68.5z" />
<glyph unicode="&#x2122;" horiz-adv-x="1433" d="M14 1233v2q0 90 101 90h411q100 0 101 -90v-2q0 -94 -101 -94h-96v-375q0 -100 -96 -100h-31q-88 0 -88 100v375h-100q-100 0 -101 94zM684 764v469q0 51 19.5 76.5t66.5 25.5h66q41 0 59 -12t33 -43l104 -248l105 248q14 35 33.5 45t54.5 10h65q88 0 88 -102v-469 q0 -49 -18.5 -74.5t-65.5 -25.5h-34q-84 0 -84 100v256l-58 -182q-4 -18 -16 -30.5t-72 -12.5q-31 0 -46 3t-22.5 8t-9.5 13t-6 19l-59 174v-248q0 -49 -17.5 -74.5t-64.5 -25.5h-37q-84 0 -84 100z" />
<glyph unicode="&#x25fc;" horiz-adv-x="1034" d="M0 0v1034h1034v-1034h-1034z" />
</font>
</defs>
</svg>
